%TF.GenerationSoftware,KiCad,Pcbnew,9.0.0*%
%TF.CreationDate,2025-11-09T18:10:32+09:00*%
%TF.ProjectId,temperature_monitor,74656d70-6572-4617-9475-72655f6d6f6e,0.1.1*%
%TF.SameCoordinates,Original*%
%TF.FileFunction,Legend,Top*%
%TF.FilePolarity,Positive*%
%FSLAX46Y46*%
G04 Gerber Fmt 4.6, Leading zero omitted, Abs format (unit mm)*
G04 Created by KiCad (PCBNEW 9.0.0) date 2025-11-09 18:10:32*
%MOMM*%
%LPD*%
G01*
G04 APERTURE LIST*
%ADD10C,0.100000*%
%ADD11C,0.150000*%
%ADD12C,0.500000*%
%ADD13C,0.120000*%
G04 APERTURE END LIST*
D10*
X150400000Y-57070000D02*
X160500000Y-57070000D01*
X160500000Y-73070000D01*
X150400000Y-73070000D01*
X150400000Y-57070000D01*
X182500000Y-100000000D02*
X197500000Y-100000000D01*
X197500000Y-120000000D01*
X182500000Y-120000000D01*
X182500000Y-100000000D01*
X128300000Y-69100000D02*
X138700000Y-69100000D01*
X138700000Y-85100000D01*
X128300000Y-85100000D01*
X128300000Y-69100000D01*
G36*
X155497557Y-81054265D02*
G01*
X154993806Y-81543972D01*
X154993806Y-82201290D01*
X155714323Y-82621083D01*
X156287988Y-82299293D01*
X156469949Y-81613886D01*
X157043614Y-81760737D01*
X156903480Y-82285249D01*
X157421275Y-82418361D01*
X157274424Y-82977983D01*
X156588712Y-82803044D01*
X156001308Y-83131856D01*
X156001308Y-83978157D01*
X156588712Y-84306969D01*
X157274424Y-84125008D01*
X157407231Y-84684630D01*
X156903480Y-84824459D01*
X157043614Y-85342254D01*
X156497732Y-85482083D01*
X156302032Y-84810720D01*
X155728367Y-84481908D01*
X154993806Y-84908417D01*
X154993806Y-85559019D01*
X155497557Y-86055748D01*
X155084787Y-86461496D01*
X154707126Y-86090553D01*
X154322444Y-86461496D01*
X153909673Y-86055748D01*
X154420446Y-85559019D01*
X154420446Y-84908417D01*
X153692908Y-84481908D01*
X153119242Y-84810720D01*
X152944303Y-85496127D01*
X152370638Y-85342254D01*
X152503750Y-84824459D01*
X152000000Y-84684630D01*
X152146851Y-84125008D01*
X152818518Y-84306969D01*
X153405922Y-83978157D01*
X153405922Y-83131856D01*
X153979588Y-83131856D01*
X153979588Y-83978157D01*
X154707126Y-84397950D01*
X155427643Y-83978157D01*
X155427643Y-83131856D01*
X154707126Y-82705041D01*
X153979588Y-83131856D01*
X153405922Y-83131856D01*
X152818518Y-82803044D01*
X152146851Y-82977983D01*
X152000000Y-82418361D01*
X152503750Y-82285249D01*
X152370638Y-81760737D01*
X152930259Y-81613886D01*
X153105198Y-82299293D01*
X153678864Y-82621083D01*
X154420446Y-82201290D01*
X154420446Y-81543972D01*
X153909673Y-81054265D01*
X154322444Y-80641495D01*
X154707126Y-81012133D01*
X155084787Y-80641495D01*
X155497557Y-81054265D01*
G37*
D11*
X182165350Y-125903152D02*
X182165350Y-126569819D01*
X181927255Y-125522200D02*
X181689160Y-126236485D01*
X181689160Y-126236485D02*
X182308207Y-126236485D01*
X182689160Y-126474580D02*
X182736779Y-126522200D01*
X182736779Y-126522200D02*
X182689160Y-126569819D01*
X182689160Y-126569819D02*
X182641541Y-126522200D01*
X182641541Y-126522200D02*
X182689160Y-126474580D01*
X182689160Y-126474580D02*
X182689160Y-126569819D01*
X183070112Y-125569819D02*
X183736778Y-125569819D01*
X183736778Y-125569819D02*
X183308207Y-126569819D01*
X184546302Y-125903152D02*
X184546302Y-126569819D01*
X184117731Y-125903152D02*
X184117731Y-126426961D01*
X184117731Y-126426961D02*
X184165350Y-126522200D01*
X184165350Y-126522200D02*
X184260588Y-126569819D01*
X184260588Y-126569819D02*
X184403445Y-126569819D01*
X184403445Y-126569819D02*
X184498683Y-126522200D01*
X184498683Y-126522200D02*
X184546302Y-126474580D01*
X130908207Y-84369819D02*
X130574874Y-83893628D01*
X130336779Y-84369819D02*
X130336779Y-83369819D01*
X130336779Y-83369819D02*
X130717731Y-83369819D01*
X130717731Y-83369819D02*
X130812969Y-83417438D01*
X130812969Y-83417438D02*
X130860588Y-83465057D01*
X130860588Y-83465057D02*
X130908207Y-83560295D01*
X130908207Y-83560295D02*
X130908207Y-83703152D01*
X130908207Y-83703152D02*
X130860588Y-83798390D01*
X130860588Y-83798390D02*
X130812969Y-83846009D01*
X130812969Y-83846009D02*
X130717731Y-83893628D01*
X130717731Y-83893628D02*
X130336779Y-83893628D01*
X131241541Y-83369819D02*
X131908207Y-84369819D01*
X131908207Y-83369819D02*
X131241541Y-84369819D01*
X132289160Y-83988866D02*
X133051065Y-83988866D01*
X133670112Y-83798390D02*
X133574874Y-83750771D01*
X133574874Y-83750771D02*
X133527255Y-83703152D01*
X133527255Y-83703152D02*
X133479636Y-83607914D01*
X133479636Y-83607914D02*
X133479636Y-83560295D01*
X133479636Y-83560295D02*
X133527255Y-83465057D01*
X133527255Y-83465057D02*
X133574874Y-83417438D01*
X133574874Y-83417438D02*
X133670112Y-83369819D01*
X133670112Y-83369819D02*
X133860588Y-83369819D01*
X133860588Y-83369819D02*
X133955826Y-83417438D01*
X133955826Y-83417438D02*
X134003445Y-83465057D01*
X134003445Y-83465057D02*
X134051064Y-83560295D01*
X134051064Y-83560295D02*
X134051064Y-83607914D01*
X134051064Y-83607914D02*
X134003445Y-83703152D01*
X134003445Y-83703152D02*
X133955826Y-83750771D01*
X133955826Y-83750771D02*
X133860588Y-83798390D01*
X133860588Y-83798390D02*
X133670112Y-83798390D01*
X133670112Y-83798390D02*
X133574874Y-83846009D01*
X133574874Y-83846009D02*
X133527255Y-83893628D01*
X133527255Y-83893628D02*
X133479636Y-83988866D01*
X133479636Y-83988866D02*
X133479636Y-84179342D01*
X133479636Y-84179342D02*
X133527255Y-84274580D01*
X133527255Y-84274580D02*
X133574874Y-84322200D01*
X133574874Y-84322200D02*
X133670112Y-84369819D01*
X133670112Y-84369819D02*
X133860588Y-84369819D01*
X133860588Y-84369819D02*
X133955826Y-84322200D01*
X133955826Y-84322200D02*
X134003445Y-84274580D01*
X134003445Y-84274580D02*
X134051064Y-84179342D01*
X134051064Y-84179342D02*
X134051064Y-83988866D01*
X134051064Y-83988866D02*
X134003445Y-83893628D01*
X134003445Y-83893628D02*
X133955826Y-83846009D01*
X133955826Y-83846009D02*
X133860588Y-83798390D01*
X134670112Y-83369819D02*
X134765350Y-83369819D01*
X134765350Y-83369819D02*
X134860588Y-83417438D01*
X134860588Y-83417438D02*
X134908207Y-83465057D01*
X134908207Y-83465057D02*
X134955826Y-83560295D01*
X134955826Y-83560295D02*
X135003445Y-83750771D01*
X135003445Y-83750771D02*
X135003445Y-83988866D01*
X135003445Y-83988866D02*
X134955826Y-84179342D01*
X134955826Y-84179342D02*
X134908207Y-84274580D01*
X134908207Y-84274580D02*
X134860588Y-84322200D01*
X134860588Y-84322200D02*
X134765350Y-84369819D01*
X134765350Y-84369819D02*
X134670112Y-84369819D01*
X134670112Y-84369819D02*
X134574874Y-84322200D01*
X134574874Y-84322200D02*
X134527255Y-84274580D01*
X134527255Y-84274580D02*
X134479636Y-84179342D01*
X134479636Y-84179342D02*
X134432017Y-83988866D01*
X134432017Y-83988866D02*
X134432017Y-83750771D01*
X134432017Y-83750771D02*
X134479636Y-83560295D01*
X134479636Y-83560295D02*
X134527255Y-83465057D01*
X134527255Y-83465057D02*
X134574874Y-83417438D01*
X134574874Y-83417438D02*
X134670112Y-83369819D01*
X135384398Y-83465057D02*
X135432017Y-83417438D01*
X135432017Y-83417438D02*
X135527255Y-83369819D01*
X135527255Y-83369819D02*
X135765350Y-83369819D01*
X135765350Y-83369819D02*
X135860588Y-83417438D01*
X135860588Y-83417438D02*
X135908207Y-83465057D01*
X135908207Y-83465057D02*
X135955826Y-83560295D01*
X135955826Y-83560295D02*
X135955826Y-83655533D01*
X135955826Y-83655533D02*
X135908207Y-83798390D01*
X135908207Y-83798390D02*
X135336779Y-84369819D01*
X135336779Y-84369819D02*
X135955826Y-84369819D01*
X136860588Y-83369819D02*
X136384398Y-83369819D01*
X136384398Y-83369819D02*
X136336779Y-83846009D01*
X136336779Y-83846009D02*
X136384398Y-83798390D01*
X136384398Y-83798390D02*
X136479636Y-83750771D01*
X136479636Y-83750771D02*
X136717731Y-83750771D01*
X136717731Y-83750771D02*
X136812969Y-83798390D01*
X136812969Y-83798390D02*
X136860588Y-83846009D01*
X136860588Y-83846009D02*
X136908207Y-83941247D01*
X136908207Y-83941247D02*
X136908207Y-84179342D01*
X136908207Y-84179342D02*
X136860588Y-84274580D01*
X136860588Y-84274580D02*
X136812969Y-84322200D01*
X136812969Y-84322200D02*
X136717731Y-84369819D01*
X136717731Y-84369819D02*
X136479636Y-84369819D01*
X136479636Y-84369819D02*
X136384398Y-84322200D01*
X136384398Y-84322200D02*
X136336779Y-84274580D01*
D12*
G36*
X160619330Y-85190404D02*
G01*
X160477389Y-85184191D01*
X160341351Y-85165827D01*
X160045817Y-85092554D01*
X160164733Y-84760232D01*
X160342040Y-84814945D01*
X160497223Y-84845269D01*
X160633374Y-84854723D01*
X160772695Y-84840351D01*
X160860672Y-84804043D01*
X160903836Y-84764531D01*
X160935513Y-84709412D01*
X160955163Y-84634294D01*
X160958220Y-84559701D01*
X160946310Y-84476910D01*
X160881738Y-84281058D01*
X160692755Y-83864776D01*
X160631878Y-83706531D01*
X160596584Y-83576264D01*
X160582213Y-83445613D01*
X160591394Y-83298285D01*
X160628312Y-83181584D01*
X160699777Y-83070987D01*
X160799559Y-82978027D01*
X160932418Y-82903070D01*
X161085244Y-82856570D01*
X161269931Y-82840025D01*
X161465784Y-82847047D01*
X161472806Y-82826133D01*
X160913184Y-82735153D01*
X160171602Y-82658217D01*
X160276626Y-82329405D01*
X161168418Y-82434429D01*
X161538973Y-82496280D01*
X161937936Y-82581280D01*
X161811998Y-82927494D01*
X161661636Y-82923983D01*
X161425451Y-82938271D01*
X161250713Y-82976084D01*
X161124047Y-83031540D01*
X161034597Y-83101455D01*
X160974769Y-83185800D01*
X160941120Y-83287752D01*
X160936954Y-83407623D01*
X160961565Y-83549112D01*
X161021567Y-83717925D01*
X161203375Y-84106119D01*
X161266217Y-84265648D01*
X161301378Y-84403484D01*
X161314463Y-84540356D01*
X161304889Y-84679784D01*
X161275567Y-84798135D01*
X161228842Y-84898838D01*
X161164982Y-84984718D01*
X161082780Y-85057597D01*
X160954270Y-85129470D01*
X160801688Y-85174460D01*
X160619330Y-85190404D01*
G37*
G36*
X161986937Y-85012107D02*
G01*
X161915507Y-84655361D01*
X161827392Y-84331235D01*
X161723786Y-84037078D01*
X161605613Y-83770437D01*
X161951980Y-83613053D01*
X162115377Y-84004109D01*
X162246116Y-84418390D01*
X162343684Y-84858081D01*
X161986937Y-85012107D01*
G37*
G36*
X159146851Y-84854723D02*
G01*
X159322972Y-84627899D01*
X159503505Y-84360101D01*
X159688501Y-84046757D01*
X159877900Y-83682968D01*
X160199690Y-83791351D01*
X160030283Y-84118144D01*
X159839432Y-84448975D01*
X159636080Y-84765575D01*
X159444216Y-85029509D01*
X159146851Y-84854723D01*
G37*
G36*
X165255517Y-82693174D02*
G01*
X165450000Y-82716745D01*
X165617604Y-82765701D01*
X165762626Y-82838346D01*
X165890209Y-82936910D01*
X165990285Y-83055036D01*
X166065182Y-83195093D01*
X166110860Y-83347981D01*
X166127435Y-83517398D01*
X166112504Y-83707392D01*
X166064695Y-83913699D01*
X165989915Y-84096213D01*
X165888564Y-84258312D01*
X165761703Y-84401387D01*
X165613806Y-84521073D01*
X165442668Y-84618571D01*
X165258124Y-84688769D01*
X165055694Y-84732895D01*
X164832366Y-84749699D01*
X164758941Y-84749699D01*
X164656178Y-84875252D01*
X164540436Y-84984535D01*
X164410894Y-85078510D01*
X164270831Y-85157057D01*
X164110158Y-85227251D01*
X163926530Y-85288407D01*
X163818148Y-84991041D01*
X164012732Y-84925480D01*
X164167873Y-84856402D01*
X164306250Y-84772039D01*
X164423107Y-84672762D01*
X164307790Y-84608858D01*
X164201710Y-84521825D01*
X164114277Y-84420887D01*
X164944260Y-84420887D01*
X165114413Y-84401979D01*
X165261912Y-84361700D01*
X165390252Y-84301544D01*
X165502202Y-84221676D01*
X165597098Y-84122505D01*
X165673365Y-84004135D01*
X165731306Y-83863627D01*
X165769801Y-83697012D01*
X165782190Y-83550727D01*
X165768885Y-83427432D01*
X165733023Y-83322396D01*
X165675309Y-83231882D01*
X165598167Y-83156506D01*
X165500608Y-83095389D01*
X165378776Y-83048784D01*
X165227581Y-83018475D01*
X165154156Y-83626945D01*
X165093002Y-83940994D01*
X165022414Y-84203470D01*
X164944260Y-84420887D01*
X164114277Y-84420887D01*
X164103916Y-84408925D01*
X164014294Y-84266215D01*
X163933552Y-84088716D01*
X164213363Y-83882331D01*
X164295950Y-84069004D01*
X164382959Y-84204121D01*
X164452762Y-84278367D01*
X164532190Y-84336307D01*
X164622470Y-84379060D01*
X164688608Y-84204502D01*
X164753516Y-83963675D01*
X164814964Y-83640989D01*
X164857584Y-83338101D01*
X164888389Y-83025497D01*
X164719211Y-83064358D01*
X164550530Y-83127377D01*
X164381096Y-83216210D01*
X164209852Y-83333243D01*
X164054123Y-83466249D01*
X163912135Y-83616478D01*
X163783368Y-83785024D01*
X163667633Y-83973312D01*
X163600978Y-84107948D01*
X163555739Y-84221676D01*
X163521838Y-84338812D01*
X163492847Y-84483932D01*
X163468270Y-84648338D01*
X163129077Y-84662229D01*
X163155334Y-84401805D01*
X163206014Y-84036204D01*
X163282250Y-83626229D01*
X163398646Y-83122621D01*
X163562761Y-82511366D01*
X163908975Y-82539301D01*
X163714605Y-83234810D01*
X163583827Y-83787840D01*
X163604740Y-83787840D01*
X163695649Y-83569744D01*
X163809858Y-83376886D01*
X163947572Y-83206581D01*
X164110018Y-83056943D01*
X164292296Y-82930204D01*
X164485752Y-82830767D01*
X164691939Y-82757601D01*
X164912814Y-82710576D01*
X164940749Y-82234913D01*
X165287116Y-82210489D01*
X165255517Y-82693174D01*
G37*
G36*
X169269343Y-82854069D02*
G01*
X168945907Y-82783215D01*
X168554016Y-82715919D01*
X168150370Y-82662029D01*
X167751373Y-82623259D01*
X167873800Y-82280403D01*
X168279051Y-82321879D01*
X168685144Y-82376574D01*
X169076791Y-82443381D01*
X169388258Y-82511366D01*
X169269343Y-82854069D01*
G37*
G36*
X167370049Y-84767254D02*
G01*
X167750165Y-84832104D01*
X168045075Y-84851212D01*
X168362265Y-84834965D01*
X168605815Y-84791458D01*
X168790016Y-84727106D01*
X168913350Y-84653243D01*
X169004428Y-84562715D01*
X169067874Y-84453982D01*
X169104937Y-84323037D01*
X169111456Y-84207274D01*
X169092399Y-84113528D01*
X169050453Y-84036191D01*
X168984189Y-83971632D01*
X168871395Y-83911408D01*
X168710420Y-83870161D01*
X168485781Y-83854396D01*
X168253538Y-83870412D01*
X168043030Y-83916883D01*
X167850902Y-83992546D01*
X167671720Y-84095901D01*
X167514412Y-84218641D01*
X167377071Y-84361505D01*
X167058792Y-84323037D01*
X167259878Y-83643155D01*
X167475074Y-82948560D01*
X167821288Y-82983517D01*
X167562543Y-83784329D01*
X167471563Y-84071161D01*
X167495987Y-84074672D01*
X167639867Y-83908090D01*
X167798403Y-83774312D01*
X167972909Y-83670494D01*
X168165637Y-83595252D01*
X168379664Y-83548731D01*
X168618741Y-83532606D01*
X168847036Y-83547788D01*
X169031133Y-83589593D01*
X169179053Y-83653937D01*
X169297278Y-83738991D01*
X169375181Y-83825898D01*
X169430713Y-83924288D01*
X169465079Y-84036452D01*
X169477486Y-84165682D01*
X169465195Y-84316015D01*
X169422641Y-84492581D01*
X169355750Y-84645045D01*
X169264942Y-84777148D01*
X169148817Y-84891434D01*
X169004257Y-84989080D01*
X168826633Y-85069802D01*
X168610037Y-85131889D01*
X168347506Y-85172315D01*
X168031184Y-85186893D01*
X167789362Y-85178198D01*
X167538981Y-85151656D01*
X167279221Y-85106446D01*
X167370049Y-84767254D01*
G37*
G36*
X171362809Y-82385428D02*
G01*
X171199508Y-82836996D01*
X171063612Y-83277219D01*
X170954474Y-83704300D01*
X170890657Y-84036204D01*
X170837214Y-84407304D01*
X170817232Y-84609870D01*
X170841656Y-84609870D01*
X170891607Y-84445189D01*
X170948360Y-84293270D01*
X171019026Y-84142469D01*
X171121467Y-83962779D01*
X171338232Y-84088716D01*
X171142279Y-84404264D01*
X171021785Y-84623913D01*
X170931350Y-84828106D01*
X170876613Y-85001574D01*
X170855700Y-85193915D01*
X170495442Y-85225362D01*
X170492600Y-84831832D01*
X170516853Y-84431090D01*
X170568867Y-84022160D01*
X170635353Y-83666156D01*
X170741822Y-83237072D01*
X170874035Y-82797840D01*
X171033997Y-82343449D01*
X171362809Y-82385428D01*
G37*
G36*
X172179935Y-82526576D02*
G01*
X172751330Y-82532279D01*
X173128990Y-82525257D01*
X173094033Y-82829492D01*
X172905203Y-82833003D01*
X172824755Y-83329732D01*
X173168125Y-83314979D01*
X173433378Y-83294774D01*
X173401779Y-83606031D01*
X173113786Y-83625682D01*
X172775754Y-83637478D01*
X172674393Y-84288080D01*
X172876133Y-84404865D01*
X173083267Y-84558382D01*
X173296907Y-84753210D01*
X173076631Y-85018976D01*
X172926077Y-84864763D01*
X172773424Y-84733612D01*
X172618370Y-84623761D01*
X172604479Y-84718252D01*
X172575066Y-84832506D01*
X172527630Y-84930160D01*
X172462151Y-85013908D01*
X172377028Y-85085380D01*
X172244980Y-85154180D01*
X172078764Y-85198653D01*
X171869918Y-85214829D01*
X171728293Y-85204310D01*
X171610942Y-85174907D01*
X171513540Y-85128732D01*
X171432724Y-85066298D01*
X171368426Y-84987166D01*
X171327985Y-84897937D01*
X171310327Y-84795673D01*
X171313456Y-84742244D01*
X171642948Y-84742244D01*
X171660831Y-84801752D01*
X171698490Y-84849380D01*
X171751425Y-84883137D01*
X171825038Y-84905632D01*
X171925942Y-84914105D01*
X172038916Y-84905906D01*
X172123631Y-84883998D01*
X172186366Y-84851212D01*
X172236969Y-84803143D01*
X172273801Y-84739203D01*
X172296580Y-84655360D01*
X172324668Y-84476910D01*
X172150783Y-84431783D01*
X171992345Y-84417528D01*
X171894069Y-84425753D01*
X171815511Y-84448473D01*
X171752682Y-84483932D01*
X171701337Y-84533498D01*
X171666092Y-84593323D01*
X171646131Y-84665740D01*
X171642948Y-84742244D01*
X171313456Y-84742244D01*
X171317319Y-84676273D01*
X171348973Y-84549454D01*
X171399085Y-84441041D01*
X171467396Y-84348135D01*
X171555150Y-84268845D01*
X171692540Y-84190397D01*
X171857051Y-84141172D01*
X172055238Y-84123674D01*
X172214429Y-84135054D01*
X172370006Y-84169164D01*
X172453964Y-83640989D01*
X171967352Y-83635692D01*
X171499127Y-83620075D01*
X171558661Y-83308666D01*
X171947387Y-83326357D01*
X172502965Y-83333243D01*
X172579902Y-82836514D01*
X172148290Y-82831414D01*
X171684599Y-82815601D01*
X171743981Y-82511366D01*
X172179935Y-82526576D01*
G37*
G36*
X173456157Y-82565474D02*
G01*
X173503292Y-82836514D01*
X173265461Y-82899559D01*
X173213714Y-82625637D01*
X173139523Y-82336427D01*
X173380866Y-82273381D01*
X173456157Y-82565474D01*
G37*
G36*
X173867697Y-82472350D02*
G01*
X173912552Y-82724620D01*
X173685101Y-82791024D01*
X173621674Y-82467007D01*
X173555805Y-82228044D01*
X173786614Y-82161488D01*
X173867697Y-82472350D01*
G37*
D11*
X176969819Y-111172744D02*
X176969819Y-111077506D01*
X176969819Y-111077506D02*
X177017438Y-110982268D01*
X177017438Y-110982268D02*
X177065057Y-110934649D01*
X177065057Y-110934649D02*
X177160295Y-110887030D01*
X177160295Y-110887030D02*
X177350771Y-110839411D01*
X177350771Y-110839411D02*
X177588866Y-110839411D01*
X177588866Y-110839411D02*
X177779342Y-110887030D01*
X177779342Y-110887030D02*
X177874580Y-110934649D01*
X177874580Y-110934649D02*
X177922200Y-110982268D01*
X177922200Y-110982268D02*
X177969819Y-111077506D01*
X177969819Y-111077506D02*
X177969819Y-111172744D01*
X177969819Y-111172744D02*
X177922200Y-111267982D01*
X177922200Y-111267982D02*
X177874580Y-111315601D01*
X177874580Y-111315601D02*
X177779342Y-111363220D01*
X177779342Y-111363220D02*
X177588866Y-111410839D01*
X177588866Y-111410839D02*
X177350771Y-111410839D01*
X177350771Y-111410839D02*
X177160295Y-111363220D01*
X177160295Y-111363220D02*
X177065057Y-111315601D01*
X177065057Y-111315601D02*
X177017438Y-111267982D01*
X177017438Y-111267982D02*
X176969819Y-111172744D01*
X177874580Y-110410839D02*
X177922200Y-110363220D01*
X177922200Y-110363220D02*
X177969819Y-110410839D01*
X177969819Y-110410839D02*
X177922200Y-110458458D01*
X177922200Y-110458458D02*
X177874580Y-110410839D01*
X177874580Y-110410839D02*
X177969819Y-110410839D01*
X177969819Y-109410840D02*
X177969819Y-109982268D01*
X177969819Y-109696554D02*
X176969819Y-109696554D01*
X176969819Y-109696554D02*
X177112676Y-109791792D01*
X177112676Y-109791792D02*
X177207914Y-109887030D01*
X177207914Y-109887030D02*
X177255533Y-109982268D01*
X177303152Y-108553697D02*
X177969819Y-108553697D01*
X177303152Y-108982268D02*
X177826961Y-108982268D01*
X177826961Y-108982268D02*
X177922200Y-108934649D01*
X177922200Y-108934649D02*
X177969819Y-108839411D01*
X177969819Y-108839411D02*
X177969819Y-108696554D01*
X177969819Y-108696554D02*
X177922200Y-108601316D01*
X177922200Y-108601316D02*
X177874580Y-108553697D01*
X174860588Y-91369819D02*
X174289160Y-91369819D01*
X174574874Y-91369819D02*
X174574874Y-90369819D01*
X174574874Y-90369819D02*
X174479636Y-90512676D01*
X174479636Y-90512676D02*
X174384398Y-90607914D01*
X174384398Y-90607914D02*
X174289160Y-90655533D01*
X175479636Y-90369819D02*
X175574874Y-90369819D01*
X175574874Y-90369819D02*
X175670112Y-90417438D01*
X175670112Y-90417438D02*
X175717731Y-90465057D01*
X175717731Y-90465057D02*
X175765350Y-90560295D01*
X175765350Y-90560295D02*
X175812969Y-90750771D01*
X175812969Y-90750771D02*
X175812969Y-90988866D01*
X175812969Y-90988866D02*
X175765350Y-91179342D01*
X175765350Y-91179342D02*
X175717731Y-91274580D01*
X175717731Y-91274580D02*
X175670112Y-91322200D01*
X175670112Y-91322200D02*
X175574874Y-91369819D01*
X175574874Y-91369819D02*
X175479636Y-91369819D01*
X175479636Y-91369819D02*
X175384398Y-91322200D01*
X175384398Y-91322200D02*
X175336779Y-91274580D01*
X175336779Y-91274580D02*
X175289160Y-91179342D01*
X175289160Y-91179342D02*
X175241541Y-90988866D01*
X175241541Y-90988866D02*
X175241541Y-90750771D01*
X175241541Y-90750771D02*
X175289160Y-90560295D01*
X175289160Y-90560295D02*
X175336779Y-90465057D01*
X175336779Y-90465057D02*
X175384398Y-90417438D01*
X175384398Y-90417438D02*
X175479636Y-90369819D01*
X176241541Y-91369819D02*
X176241541Y-90369819D01*
X176336779Y-90988866D02*
X176622493Y-91369819D01*
X176622493Y-90703152D02*
X176241541Y-91084104D01*
X144765350Y-85203152D02*
X144765350Y-85869819D01*
X144527255Y-84822200D02*
X144289160Y-85536485D01*
X144289160Y-85536485D02*
X144908207Y-85536485D01*
X145289160Y-85774580D02*
X145336779Y-85822200D01*
X145336779Y-85822200D02*
X145289160Y-85869819D01*
X145289160Y-85869819D02*
X145241541Y-85822200D01*
X145241541Y-85822200D02*
X145289160Y-85774580D01*
X145289160Y-85774580D02*
X145289160Y-85869819D01*
X145670112Y-84869819D02*
X146336778Y-84869819D01*
X146336778Y-84869819D02*
X145908207Y-85869819D01*
X146717731Y-85869819D02*
X146717731Y-84869819D01*
X146812969Y-85488866D02*
X147098683Y-85869819D01*
X147098683Y-85203152D02*
X146717731Y-85584104D01*
X179860588Y-129369819D02*
X179289160Y-129369819D01*
X179574874Y-129369819D02*
X179574874Y-128369819D01*
X179574874Y-128369819D02*
X179479636Y-128512676D01*
X179479636Y-128512676D02*
X179384398Y-128607914D01*
X179384398Y-128607914D02*
X179289160Y-128655533D01*
X180479636Y-128369819D02*
X180574874Y-128369819D01*
X180574874Y-128369819D02*
X180670112Y-128417438D01*
X180670112Y-128417438D02*
X180717731Y-128465057D01*
X180717731Y-128465057D02*
X180765350Y-128560295D01*
X180765350Y-128560295D02*
X180812969Y-128750771D01*
X180812969Y-128750771D02*
X180812969Y-128988866D01*
X180812969Y-128988866D02*
X180765350Y-129179342D01*
X180765350Y-129179342D02*
X180717731Y-129274580D01*
X180717731Y-129274580D02*
X180670112Y-129322200D01*
X180670112Y-129322200D02*
X180574874Y-129369819D01*
X180574874Y-129369819D02*
X180479636Y-129369819D01*
X180479636Y-129369819D02*
X180384398Y-129322200D01*
X180384398Y-129322200D02*
X180336779Y-129274580D01*
X180336779Y-129274580D02*
X180289160Y-129179342D01*
X180289160Y-129179342D02*
X180241541Y-128988866D01*
X180241541Y-128988866D02*
X180241541Y-128750771D01*
X180241541Y-128750771D02*
X180289160Y-128560295D01*
X180289160Y-128560295D02*
X180336779Y-128465057D01*
X180336779Y-128465057D02*
X180384398Y-128417438D01*
X180384398Y-128417438D02*
X180479636Y-128369819D01*
X181241541Y-129369819D02*
X181241541Y-128369819D01*
X181241541Y-128369819D02*
X181574874Y-129084104D01*
X181574874Y-129084104D02*
X181908207Y-128369819D01*
X181908207Y-128369819D02*
X181908207Y-129369819D01*
X176562969Y-123669819D02*
X176086779Y-123669819D01*
X176086779Y-123669819D02*
X176039160Y-124146009D01*
X176039160Y-124146009D02*
X176086779Y-124098390D01*
X176086779Y-124098390D02*
X176182017Y-124050771D01*
X176182017Y-124050771D02*
X176420112Y-124050771D01*
X176420112Y-124050771D02*
X176515350Y-124098390D01*
X176515350Y-124098390D02*
X176562969Y-124146009D01*
X176562969Y-124146009D02*
X176610588Y-124241247D01*
X176610588Y-124241247D02*
X176610588Y-124479342D01*
X176610588Y-124479342D02*
X176562969Y-124574580D01*
X176562969Y-124574580D02*
X176515350Y-124622200D01*
X176515350Y-124622200D02*
X176420112Y-124669819D01*
X176420112Y-124669819D02*
X176182017Y-124669819D01*
X176182017Y-124669819D02*
X176086779Y-124622200D01*
X176086779Y-124622200D02*
X176039160Y-124574580D01*
X177039160Y-124574580D02*
X177086779Y-124622200D01*
X177086779Y-124622200D02*
X177039160Y-124669819D01*
X177039160Y-124669819D02*
X176991541Y-124622200D01*
X176991541Y-124622200D02*
X177039160Y-124574580D01*
X177039160Y-124574580D02*
X177039160Y-124669819D01*
X178039159Y-124669819D02*
X177467731Y-124669819D01*
X177753445Y-124669819D02*
X177753445Y-123669819D01*
X177753445Y-123669819D02*
X177658207Y-123812676D01*
X177658207Y-123812676D02*
X177562969Y-123907914D01*
X177562969Y-123907914D02*
X177467731Y-123955533D01*
X178467731Y-124669819D02*
X178467731Y-123669819D01*
X178562969Y-124288866D02*
X178848683Y-124669819D01*
X178848683Y-124003152D02*
X178467731Y-124384104D01*
X140765350Y-85203152D02*
X140765350Y-85869819D01*
X140527255Y-84822200D02*
X140289160Y-85536485D01*
X140289160Y-85536485D02*
X140908207Y-85536485D01*
X141289160Y-85774580D02*
X141336779Y-85822200D01*
X141336779Y-85822200D02*
X141289160Y-85869819D01*
X141289160Y-85869819D02*
X141241541Y-85822200D01*
X141241541Y-85822200D02*
X141289160Y-85774580D01*
X141289160Y-85774580D02*
X141289160Y-85869819D01*
X141670112Y-84869819D02*
X142336778Y-84869819D01*
X142336778Y-84869819D02*
X141908207Y-85869819D01*
X142717731Y-85869819D02*
X142717731Y-84869819D01*
X142812969Y-85488866D02*
X143098683Y-85869819D01*
X143098683Y-85203152D02*
X142717731Y-85584104D01*
X180062969Y-123669819D02*
X179586779Y-123669819D01*
X179586779Y-123669819D02*
X179539160Y-124146009D01*
X179539160Y-124146009D02*
X179586779Y-124098390D01*
X179586779Y-124098390D02*
X179682017Y-124050771D01*
X179682017Y-124050771D02*
X179920112Y-124050771D01*
X179920112Y-124050771D02*
X180015350Y-124098390D01*
X180015350Y-124098390D02*
X180062969Y-124146009D01*
X180062969Y-124146009D02*
X180110588Y-124241247D01*
X180110588Y-124241247D02*
X180110588Y-124479342D01*
X180110588Y-124479342D02*
X180062969Y-124574580D01*
X180062969Y-124574580D02*
X180015350Y-124622200D01*
X180015350Y-124622200D02*
X179920112Y-124669819D01*
X179920112Y-124669819D02*
X179682017Y-124669819D01*
X179682017Y-124669819D02*
X179586779Y-124622200D01*
X179586779Y-124622200D02*
X179539160Y-124574580D01*
X180539160Y-124574580D02*
X180586779Y-124622200D01*
X180586779Y-124622200D02*
X180539160Y-124669819D01*
X180539160Y-124669819D02*
X180491541Y-124622200D01*
X180491541Y-124622200D02*
X180539160Y-124574580D01*
X180539160Y-124574580D02*
X180539160Y-124669819D01*
X181539159Y-124669819D02*
X180967731Y-124669819D01*
X181253445Y-124669819D02*
X181253445Y-123669819D01*
X181253445Y-123669819D02*
X181158207Y-123812676D01*
X181158207Y-123812676D02*
X181062969Y-123907914D01*
X181062969Y-123907914D02*
X180967731Y-123955533D01*
X181967731Y-124669819D02*
X181967731Y-123669819D01*
X182062969Y-124288866D02*
X182348683Y-124669819D01*
X182348683Y-124003152D02*
X181967731Y-124384104D01*
X107027255Y-99869819D02*
X107122493Y-99869819D01*
X107122493Y-99869819D02*
X107217731Y-99917438D01*
X107217731Y-99917438D02*
X107265350Y-99965057D01*
X107265350Y-99965057D02*
X107312969Y-100060295D01*
X107312969Y-100060295D02*
X107360588Y-100250771D01*
X107360588Y-100250771D02*
X107360588Y-100488866D01*
X107360588Y-100488866D02*
X107312969Y-100679342D01*
X107312969Y-100679342D02*
X107265350Y-100774580D01*
X107265350Y-100774580D02*
X107217731Y-100822200D01*
X107217731Y-100822200D02*
X107122493Y-100869819D01*
X107122493Y-100869819D02*
X107027255Y-100869819D01*
X107027255Y-100869819D02*
X106932017Y-100822200D01*
X106932017Y-100822200D02*
X106884398Y-100774580D01*
X106884398Y-100774580D02*
X106836779Y-100679342D01*
X106836779Y-100679342D02*
X106789160Y-100488866D01*
X106789160Y-100488866D02*
X106789160Y-100250771D01*
X106789160Y-100250771D02*
X106836779Y-100060295D01*
X106836779Y-100060295D02*
X106884398Y-99965057D01*
X106884398Y-99965057D02*
X106932017Y-99917438D01*
X106932017Y-99917438D02*
X107027255Y-99869819D01*
X179969819Y-111272744D02*
X179969819Y-111177506D01*
X179969819Y-111177506D02*
X180017438Y-111082268D01*
X180017438Y-111082268D02*
X180065057Y-111034649D01*
X180065057Y-111034649D02*
X180160295Y-110987030D01*
X180160295Y-110987030D02*
X180350771Y-110939411D01*
X180350771Y-110939411D02*
X180588866Y-110939411D01*
X180588866Y-110939411D02*
X180779342Y-110987030D01*
X180779342Y-110987030D02*
X180874580Y-111034649D01*
X180874580Y-111034649D02*
X180922200Y-111082268D01*
X180922200Y-111082268D02*
X180969819Y-111177506D01*
X180969819Y-111177506D02*
X180969819Y-111272744D01*
X180969819Y-111272744D02*
X180922200Y-111367982D01*
X180922200Y-111367982D02*
X180874580Y-111415601D01*
X180874580Y-111415601D02*
X180779342Y-111463220D01*
X180779342Y-111463220D02*
X180588866Y-111510839D01*
X180588866Y-111510839D02*
X180350771Y-111510839D01*
X180350771Y-111510839D02*
X180160295Y-111463220D01*
X180160295Y-111463220D02*
X180065057Y-111415601D01*
X180065057Y-111415601D02*
X180017438Y-111367982D01*
X180017438Y-111367982D02*
X179969819Y-111272744D01*
X180874580Y-110510839D02*
X180922200Y-110463220D01*
X180922200Y-110463220D02*
X180969819Y-110510839D01*
X180969819Y-110510839D02*
X180922200Y-110558458D01*
X180922200Y-110558458D02*
X180874580Y-110510839D01*
X180874580Y-110510839D02*
X180969819Y-110510839D01*
X180969819Y-109510840D02*
X180969819Y-110082268D01*
X180969819Y-109796554D02*
X179969819Y-109796554D01*
X179969819Y-109796554D02*
X180112676Y-109891792D01*
X180112676Y-109891792D02*
X180207914Y-109987030D01*
X180207914Y-109987030D02*
X180255533Y-110082268D01*
X180303152Y-108653697D02*
X180969819Y-108653697D01*
X180303152Y-109082268D02*
X180826961Y-109082268D01*
X180826961Y-109082268D02*
X180922200Y-109034649D01*
X180922200Y-109034649D02*
X180969819Y-108939411D01*
X180969819Y-108939411D02*
X180969819Y-108796554D01*
X180969819Y-108796554D02*
X180922200Y-108701316D01*
X180922200Y-108701316D02*
X180874580Y-108653697D01*
X123027255Y-77369819D02*
X123122493Y-77369819D01*
X123122493Y-77369819D02*
X123217731Y-77417438D01*
X123217731Y-77417438D02*
X123265350Y-77465057D01*
X123265350Y-77465057D02*
X123312969Y-77560295D01*
X123312969Y-77560295D02*
X123360588Y-77750771D01*
X123360588Y-77750771D02*
X123360588Y-77988866D01*
X123360588Y-77988866D02*
X123312969Y-78179342D01*
X123312969Y-78179342D02*
X123265350Y-78274580D01*
X123265350Y-78274580D02*
X123217731Y-78322200D01*
X123217731Y-78322200D02*
X123122493Y-78369819D01*
X123122493Y-78369819D02*
X123027255Y-78369819D01*
X123027255Y-78369819D02*
X122932017Y-78322200D01*
X122932017Y-78322200D02*
X122884398Y-78274580D01*
X122884398Y-78274580D02*
X122836779Y-78179342D01*
X122836779Y-78179342D02*
X122789160Y-77988866D01*
X122789160Y-77988866D02*
X122789160Y-77750771D01*
X122789160Y-77750771D02*
X122836779Y-77560295D01*
X122836779Y-77560295D02*
X122884398Y-77465057D01*
X122884398Y-77465057D02*
X122932017Y-77417438D01*
X122932017Y-77417438D02*
X123027255Y-77369819D01*
X174860588Y-76369819D02*
X174289160Y-76369819D01*
X174574874Y-76369819D02*
X174574874Y-75369819D01*
X174574874Y-75369819D02*
X174479636Y-75512676D01*
X174479636Y-75512676D02*
X174384398Y-75607914D01*
X174384398Y-75607914D02*
X174289160Y-75655533D01*
X175479636Y-75369819D02*
X175574874Y-75369819D01*
X175574874Y-75369819D02*
X175670112Y-75417438D01*
X175670112Y-75417438D02*
X175717731Y-75465057D01*
X175717731Y-75465057D02*
X175765350Y-75560295D01*
X175765350Y-75560295D02*
X175812969Y-75750771D01*
X175812969Y-75750771D02*
X175812969Y-75988866D01*
X175812969Y-75988866D02*
X175765350Y-76179342D01*
X175765350Y-76179342D02*
X175717731Y-76274580D01*
X175717731Y-76274580D02*
X175670112Y-76322200D01*
X175670112Y-76322200D02*
X175574874Y-76369819D01*
X175574874Y-76369819D02*
X175479636Y-76369819D01*
X175479636Y-76369819D02*
X175384398Y-76322200D01*
X175384398Y-76322200D02*
X175336779Y-76274580D01*
X175336779Y-76274580D02*
X175289160Y-76179342D01*
X175289160Y-76179342D02*
X175241541Y-75988866D01*
X175241541Y-75988866D02*
X175241541Y-75750771D01*
X175241541Y-75750771D02*
X175289160Y-75560295D01*
X175289160Y-75560295D02*
X175336779Y-75465057D01*
X175336779Y-75465057D02*
X175384398Y-75417438D01*
X175384398Y-75417438D02*
X175479636Y-75369819D01*
X176241541Y-76369819D02*
X176241541Y-75369819D01*
X176336779Y-75988866D02*
X176622493Y-76369819D01*
X176622493Y-75703152D02*
X176241541Y-76084104D01*
X154670112Y-58846009D02*
X154812969Y-58893628D01*
X154812969Y-58893628D02*
X154860588Y-58941247D01*
X154860588Y-58941247D02*
X154908207Y-59036485D01*
X154908207Y-59036485D02*
X154908207Y-59179342D01*
X154908207Y-59179342D02*
X154860588Y-59274580D01*
X154860588Y-59274580D02*
X154812969Y-59322200D01*
X154812969Y-59322200D02*
X154717731Y-59369819D01*
X154717731Y-59369819D02*
X154336779Y-59369819D01*
X154336779Y-59369819D02*
X154336779Y-58369819D01*
X154336779Y-58369819D02*
X154670112Y-58369819D01*
X154670112Y-58369819D02*
X154765350Y-58417438D01*
X154765350Y-58417438D02*
X154812969Y-58465057D01*
X154812969Y-58465057D02*
X154860588Y-58560295D01*
X154860588Y-58560295D02*
X154860588Y-58655533D01*
X154860588Y-58655533D02*
X154812969Y-58750771D01*
X154812969Y-58750771D02*
X154765350Y-58798390D01*
X154765350Y-58798390D02*
X154670112Y-58846009D01*
X154670112Y-58846009D02*
X154336779Y-58846009D01*
X155336779Y-59369819D02*
X155336779Y-58369819D01*
X155336779Y-58369819D02*
X155670112Y-59084104D01*
X155670112Y-59084104D02*
X156003445Y-58369819D01*
X156003445Y-58369819D02*
X156003445Y-59369819D01*
X156479636Y-58846009D02*
X156812969Y-58846009D01*
X156955826Y-59369819D02*
X156479636Y-59369819D01*
X156479636Y-59369819D02*
X156479636Y-58369819D01*
X156479636Y-58369819D02*
X156955826Y-58369819D01*
X157336779Y-58465057D02*
X157384398Y-58417438D01*
X157384398Y-58417438D02*
X157479636Y-58369819D01*
X157479636Y-58369819D02*
X157717731Y-58369819D01*
X157717731Y-58369819D02*
X157812969Y-58417438D01*
X157812969Y-58417438D02*
X157860588Y-58465057D01*
X157860588Y-58465057D02*
X157908207Y-58560295D01*
X157908207Y-58560295D02*
X157908207Y-58655533D01*
X157908207Y-58655533D02*
X157860588Y-58798390D01*
X157860588Y-58798390D02*
X157289160Y-59369819D01*
X157289160Y-59369819D02*
X157908207Y-59369819D01*
X158479636Y-58798390D02*
X158384398Y-58750771D01*
X158384398Y-58750771D02*
X158336779Y-58703152D01*
X158336779Y-58703152D02*
X158289160Y-58607914D01*
X158289160Y-58607914D02*
X158289160Y-58560295D01*
X158289160Y-58560295D02*
X158336779Y-58465057D01*
X158336779Y-58465057D02*
X158384398Y-58417438D01*
X158384398Y-58417438D02*
X158479636Y-58369819D01*
X158479636Y-58369819D02*
X158670112Y-58369819D01*
X158670112Y-58369819D02*
X158765350Y-58417438D01*
X158765350Y-58417438D02*
X158812969Y-58465057D01*
X158812969Y-58465057D02*
X158860588Y-58560295D01*
X158860588Y-58560295D02*
X158860588Y-58607914D01*
X158860588Y-58607914D02*
X158812969Y-58703152D01*
X158812969Y-58703152D02*
X158765350Y-58750771D01*
X158765350Y-58750771D02*
X158670112Y-58798390D01*
X158670112Y-58798390D02*
X158479636Y-58798390D01*
X158479636Y-58798390D02*
X158384398Y-58846009D01*
X158384398Y-58846009D02*
X158336779Y-58893628D01*
X158336779Y-58893628D02*
X158289160Y-58988866D01*
X158289160Y-58988866D02*
X158289160Y-59179342D01*
X158289160Y-59179342D02*
X158336779Y-59274580D01*
X158336779Y-59274580D02*
X158384398Y-59322200D01*
X158384398Y-59322200D02*
X158479636Y-59369819D01*
X158479636Y-59369819D02*
X158670112Y-59369819D01*
X158670112Y-59369819D02*
X158765350Y-59322200D01*
X158765350Y-59322200D02*
X158812969Y-59274580D01*
X158812969Y-59274580D02*
X158860588Y-59179342D01*
X158860588Y-59179342D02*
X158860588Y-58988866D01*
X158860588Y-58988866D02*
X158812969Y-58893628D01*
X158812969Y-58893628D02*
X158765350Y-58846009D01*
X158765350Y-58846009D02*
X158670112Y-58798390D01*
X159479636Y-58369819D02*
X159574874Y-58369819D01*
X159574874Y-58369819D02*
X159670112Y-58417438D01*
X159670112Y-58417438D02*
X159717731Y-58465057D01*
X159717731Y-58465057D02*
X159765350Y-58560295D01*
X159765350Y-58560295D02*
X159812969Y-58750771D01*
X159812969Y-58750771D02*
X159812969Y-58988866D01*
X159812969Y-58988866D02*
X159765350Y-59179342D01*
X159765350Y-59179342D02*
X159717731Y-59274580D01*
X159717731Y-59274580D02*
X159670112Y-59322200D01*
X159670112Y-59322200D02*
X159574874Y-59369819D01*
X159574874Y-59369819D02*
X159479636Y-59369819D01*
X159479636Y-59369819D02*
X159384398Y-59322200D01*
X159384398Y-59322200D02*
X159336779Y-59274580D01*
X159336779Y-59274580D02*
X159289160Y-59179342D01*
X159289160Y-59179342D02*
X159241541Y-58988866D01*
X159241541Y-58988866D02*
X159241541Y-58750771D01*
X159241541Y-58750771D02*
X159289160Y-58560295D01*
X159289160Y-58560295D02*
X159336779Y-58465057D01*
X159336779Y-58465057D02*
X159384398Y-58417438D01*
X159384398Y-58417438D02*
X159479636Y-58369819D01*
X184204819Y-78683333D02*
X184919104Y-78683333D01*
X184919104Y-78683333D02*
X185061961Y-78730952D01*
X185061961Y-78730952D02*
X185157200Y-78826190D01*
X185157200Y-78826190D02*
X185204819Y-78969047D01*
X185204819Y-78969047D02*
X185204819Y-79064285D01*
X184204819Y-78302380D02*
X184204819Y-77683333D01*
X184204819Y-77683333D02*
X184585771Y-78016666D01*
X184585771Y-78016666D02*
X184585771Y-77873809D01*
X184585771Y-77873809D02*
X184633390Y-77778571D01*
X184633390Y-77778571D02*
X184681009Y-77730952D01*
X184681009Y-77730952D02*
X184776247Y-77683333D01*
X184776247Y-77683333D02*
X185014342Y-77683333D01*
X185014342Y-77683333D02*
X185109580Y-77730952D01*
X185109580Y-77730952D02*
X185157200Y-77778571D01*
X185157200Y-77778571D02*
X185204819Y-77873809D01*
X185204819Y-77873809D02*
X185204819Y-78159523D01*
X185204819Y-78159523D02*
X185157200Y-78254761D01*
X185157200Y-78254761D02*
X185109580Y-78302380D01*
X102333333Y-81954819D02*
X102000000Y-81478628D01*
X101761905Y-81954819D02*
X101761905Y-80954819D01*
X101761905Y-80954819D02*
X102142857Y-80954819D01*
X102142857Y-80954819D02*
X102238095Y-81002438D01*
X102238095Y-81002438D02*
X102285714Y-81050057D01*
X102285714Y-81050057D02*
X102333333Y-81145295D01*
X102333333Y-81145295D02*
X102333333Y-81288152D01*
X102333333Y-81288152D02*
X102285714Y-81383390D01*
X102285714Y-81383390D02*
X102238095Y-81431009D01*
X102238095Y-81431009D02*
X102142857Y-81478628D01*
X102142857Y-81478628D02*
X101761905Y-81478628D01*
X103238095Y-80954819D02*
X102761905Y-80954819D01*
X102761905Y-80954819D02*
X102714286Y-81431009D01*
X102714286Y-81431009D02*
X102761905Y-81383390D01*
X102761905Y-81383390D02*
X102857143Y-81335771D01*
X102857143Y-81335771D02*
X103095238Y-81335771D01*
X103095238Y-81335771D02*
X103190476Y-81383390D01*
X103190476Y-81383390D02*
X103238095Y-81431009D01*
X103238095Y-81431009D02*
X103285714Y-81526247D01*
X103285714Y-81526247D02*
X103285714Y-81764342D01*
X103285714Y-81764342D02*
X103238095Y-81859580D01*
X103238095Y-81859580D02*
X103190476Y-81907200D01*
X103190476Y-81907200D02*
X103095238Y-81954819D01*
X103095238Y-81954819D02*
X102857143Y-81954819D01*
X102857143Y-81954819D02*
X102761905Y-81907200D01*
X102761905Y-81907200D02*
X102714286Y-81859580D01*
X175333333Y-88954819D02*
X175000000Y-88478628D01*
X174761905Y-88954819D02*
X174761905Y-87954819D01*
X174761905Y-87954819D02*
X175142857Y-87954819D01*
X175142857Y-87954819D02*
X175238095Y-88002438D01*
X175238095Y-88002438D02*
X175285714Y-88050057D01*
X175285714Y-88050057D02*
X175333333Y-88145295D01*
X175333333Y-88145295D02*
X175333333Y-88288152D01*
X175333333Y-88288152D02*
X175285714Y-88383390D01*
X175285714Y-88383390D02*
X175238095Y-88431009D01*
X175238095Y-88431009D02*
X175142857Y-88478628D01*
X175142857Y-88478628D02*
X174761905Y-88478628D01*
X175714286Y-88050057D02*
X175761905Y-88002438D01*
X175761905Y-88002438D02*
X175857143Y-87954819D01*
X175857143Y-87954819D02*
X176095238Y-87954819D01*
X176095238Y-87954819D02*
X176190476Y-88002438D01*
X176190476Y-88002438D02*
X176238095Y-88050057D01*
X176238095Y-88050057D02*
X176285714Y-88145295D01*
X176285714Y-88145295D02*
X176285714Y-88240533D01*
X176285714Y-88240533D02*
X176238095Y-88383390D01*
X176238095Y-88383390D02*
X175666667Y-88954819D01*
X175666667Y-88954819D02*
X176285714Y-88954819D01*
X106333333Y-97954819D02*
X106000000Y-97478628D01*
X105761905Y-97954819D02*
X105761905Y-96954819D01*
X105761905Y-96954819D02*
X106142857Y-96954819D01*
X106142857Y-96954819D02*
X106238095Y-97002438D01*
X106238095Y-97002438D02*
X106285714Y-97050057D01*
X106285714Y-97050057D02*
X106333333Y-97145295D01*
X106333333Y-97145295D02*
X106333333Y-97288152D01*
X106333333Y-97288152D02*
X106285714Y-97383390D01*
X106285714Y-97383390D02*
X106238095Y-97431009D01*
X106238095Y-97431009D02*
X106142857Y-97478628D01*
X106142857Y-97478628D02*
X105761905Y-97478628D01*
X106904762Y-97383390D02*
X106809524Y-97335771D01*
X106809524Y-97335771D02*
X106761905Y-97288152D01*
X106761905Y-97288152D02*
X106714286Y-97192914D01*
X106714286Y-97192914D02*
X106714286Y-97145295D01*
X106714286Y-97145295D02*
X106761905Y-97050057D01*
X106761905Y-97050057D02*
X106809524Y-97002438D01*
X106809524Y-97002438D02*
X106904762Y-96954819D01*
X106904762Y-96954819D02*
X107095238Y-96954819D01*
X107095238Y-96954819D02*
X107190476Y-97002438D01*
X107190476Y-97002438D02*
X107238095Y-97050057D01*
X107238095Y-97050057D02*
X107285714Y-97145295D01*
X107285714Y-97145295D02*
X107285714Y-97192914D01*
X107285714Y-97192914D02*
X107238095Y-97288152D01*
X107238095Y-97288152D02*
X107190476Y-97335771D01*
X107190476Y-97335771D02*
X107095238Y-97383390D01*
X107095238Y-97383390D02*
X106904762Y-97383390D01*
X106904762Y-97383390D02*
X106809524Y-97431009D01*
X106809524Y-97431009D02*
X106761905Y-97478628D01*
X106761905Y-97478628D02*
X106714286Y-97573866D01*
X106714286Y-97573866D02*
X106714286Y-97764342D01*
X106714286Y-97764342D02*
X106761905Y-97859580D01*
X106761905Y-97859580D02*
X106809524Y-97907200D01*
X106809524Y-97907200D02*
X106904762Y-97954819D01*
X106904762Y-97954819D02*
X107095238Y-97954819D01*
X107095238Y-97954819D02*
X107190476Y-97907200D01*
X107190476Y-97907200D02*
X107238095Y-97859580D01*
X107238095Y-97859580D02*
X107285714Y-97764342D01*
X107285714Y-97764342D02*
X107285714Y-97573866D01*
X107285714Y-97573866D02*
X107238095Y-97478628D01*
X107238095Y-97478628D02*
X107190476Y-97431009D01*
X107190476Y-97431009D02*
X107095238Y-97383390D01*
X180333333Y-114859580D02*
X180285714Y-114907200D01*
X180285714Y-114907200D02*
X180142857Y-114954819D01*
X180142857Y-114954819D02*
X180047619Y-114954819D01*
X180047619Y-114954819D02*
X179904762Y-114907200D01*
X179904762Y-114907200D02*
X179809524Y-114811961D01*
X179809524Y-114811961D02*
X179761905Y-114716723D01*
X179761905Y-114716723D02*
X179714286Y-114526247D01*
X179714286Y-114526247D02*
X179714286Y-114383390D01*
X179714286Y-114383390D02*
X179761905Y-114192914D01*
X179761905Y-114192914D02*
X179809524Y-114097676D01*
X179809524Y-114097676D02*
X179904762Y-114002438D01*
X179904762Y-114002438D02*
X180047619Y-113954819D01*
X180047619Y-113954819D02*
X180142857Y-113954819D01*
X180142857Y-113954819D02*
X180285714Y-114002438D01*
X180285714Y-114002438D02*
X180333333Y-114050057D01*
X180666667Y-113954819D02*
X181285714Y-113954819D01*
X181285714Y-113954819D02*
X180952381Y-114335771D01*
X180952381Y-114335771D02*
X181095238Y-114335771D01*
X181095238Y-114335771D02*
X181190476Y-114383390D01*
X181190476Y-114383390D02*
X181238095Y-114431009D01*
X181238095Y-114431009D02*
X181285714Y-114526247D01*
X181285714Y-114526247D02*
X181285714Y-114764342D01*
X181285714Y-114764342D02*
X181238095Y-114859580D01*
X181238095Y-114859580D02*
X181190476Y-114907200D01*
X181190476Y-114907200D02*
X181095238Y-114954819D01*
X181095238Y-114954819D02*
X180809524Y-114954819D01*
X180809524Y-114954819D02*
X180714286Y-114907200D01*
X180714286Y-114907200D02*
X180666667Y-114859580D01*
X145883333Y-84454819D02*
X145550000Y-83978628D01*
X145311905Y-84454819D02*
X145311905Y-83454819D01*
X145311905Y-83454819D02*
X145692857Y-83454819D01*
X145692857Y-83454819D02*
X145788095Y-83502438D01*
X145788095Y-83502438D02*
X145835714Y-83550057D01*
X145835714Y-83550057D02*
X145883333Y-83645295D01*
X145883333Y-83645295D02*
X145883333Y-83788152D01*
X145883333Y-83788152D02*
X145835714Y-83883390D01*
X145835714Y-83883390D02*
X145788095Y-83931009D01*
X145788095Y-83931009D02*
X145692857Y-83978628D01*
X145692857Y-83978628D02*
X145311905Y-83978628D01*
X146740476Y-83788152D02*
X146740476Y-84454819D01*
X146502381Y-83407200D02*
X146264286Y-84121485D01*
X146264286Y-84121485D02*
X146883333Y-84121485D01*
X175238095Y-103954819D02*
X175238095Y-104764342D01*
X175238095Y-104764342D02*
X175285714Y-104859580D01*
X175285714Y-104859580D02*
X175333333Y-104907200D01*
X175333333Y-104907200D02*
X175428571Y-104954819D01*
X175428571Y-104954819D02*
X175619047Y-104954819D01*
X175619047Y-104954819D02*
X175714285Y-104907200D01*
X175714285Y-104907200D02*
X175761904Y-104859580D01*
X175761904Y-104859580D02*
X175809523Y-104764342D01*
X175809523Y-104764342D02*
X175809523Y-103954819D01*
X176190476Y-103954819D02*
X176809523Y-103954819D01*
X176809523Y-103954819D02*
X176476190Y-104335771D01*
X176476190Y-104335771D02*
X176619047Y-104335771D01*
X176619047Y-104335771D02*
X176714285Y-104383390D01*
X176714285Y-104383390D02*
X176761904Y-104431009D01*
X176761904Y-104431009D02*
X176809523Y-104526247D01*
X176809523Y-104526247D02*
X176809523Y-104764342D01*
X176809523Y-104764342D02*
X176761904Y-104859580D01*
X176761904Y-104859580D02*
X176714285Y-104907200D01*
X176714285Y-104907200D02*
X176619047Y-104954819D01*
X176619047Y-104954819D02*
X176333333Y-104954819D01*
X176333333Y-104954819D02*
X176238095Y-104907200D01*
X176238095Y-104907200D02*
X176190476Y-104859580D01*
X188451905Y-98454819D02*
X188451905Y-97454819D01*
X188451905Y-97454819D02*
X188690000Y-97454819D01*
X188690000Y-97454819D02*
X188832857Y-97502438D01*
X188832857Y-97502438D02*
X188928095Y-97597676D01*
X188928095Y-97597676D02*
X188975714Y-97692914D01*
X188975714Y-97692914D02*
X189023333Y-97883390D01*
X189023333Y-97883390D02*
X189023333Y-98026247D01*
X189023333Y-98026247D02*
X188975714Y-98216723D01*
X188975714Y-98216723D02*
X188928095Y-98311961D01*
X188928095Y-98311961D02*
X188832857Y-98407200D01*
X188832857Y-98407200D02*
X188690000Y-98454819D01*
X188690000Y-98454819D02*
X188451905Y-98454819D01*
X189404286Y-97550057D02*
X189451905Y-97502438D01*
X189451905Y-97502438D02*
X189547143Y-97454819D01*
X189547143Y-97454819D02*
X189785238Y-97454819D01*
X189785238Y-97454819D02*
X189880476Y-97502438D01*
X189880476Y-97502438D02*
X189928095Y-97550057D01*
X189928095Y-97550057D02*
X189975714Y-97645295D01*
X189975714Y-97645295D02*
X189975714Y-97740533D01*
X189975714Y-97740533D02*
X189928095Y-97883390D01*
X189928095Y-97883390D02*
X189356667Y-98454819D01*
X189356667Y-98454819D02*
X189975714Y-98454819D01*
X183238095Y-98454819D02*
X183238095Y-97454819D01*
X183809523Y-98454819D02*
X183380952Y-97883390D01*
X183809523Y-97454819D02*
X183238095Y-98026247D01*
X134166666Y-66454819D02*
X134166666Y-67169104D01*
X134166666Y-67169104D02*
X134119047Y-67311961D01*
X134119047Y-67311961D02*
X134023809Y-67407200D01*
X134023809Y-67407200D02*
X133880952Y-67454819D01*
X133880952Y-67454819D02*
X133785714Y-67454819D01*
X134595238Y-66550057D02*
X134642857Y-66502438D01*
X134642857Y-66502438D02*
X134738095Y-66454819D01*
X134738095Y-66454819D02*
X134976190Y-66454819D01*
X134976190Y-66454819D02*
X135071428Y-66502438D01*
X135071428Y-66502438D02*
X135119047Y-66550057D01*
X135119047Y-66550057D02*
X135166666Y-66645295D01*
X135166666Y-66645295D02*
X135166666Y-66740533D01*
X135166666Y-66740533D02*
X135119047Y-66883390D01*
X135119047Y-66883390D02*
X134547619Y-67454819D01*
X134547619Y-67454819D02*
X135166666Y-67454819D01*
X175333333Y-73454819D02*
X175000000Y-72978628D01*
X174761905Y-73454819D02*
X174761905Y-72454819D01*
X174761905Y-72454819D02*
X175142857Y-72454819D01*
X175142857Y-72454819D02*
X175238095Y-72502438D01*
X175238095Y-72502438D02*
X175285714Y-72550057D01*
X175285714Y-72550057D02*
X175333333Y-72645295D01*
X175333333Y-72645295D02*
X175333333Y-72788152D01*
X175333333Y-72788152D02*
X175285714Y-72883390D01*
X175285714Y-72883390D02*
X175238095Y-72931009D01*
X175238095Y-72931009D02*
X175142857Y-72978628D01*
X175142857Y-72978628D02*
X174761905Y-72978628D01*
X176285714Y-73454819D02*
X175714286Y-73454819D01*
X176000000Y-73454819D02*
X176000000Y-72454819D01*
X176000000Y-72454819D02*
X175904762Y-72597676D01*
X175904762Y-72597676D02*
X175809524Y-72692914D01*
X175809524Y-72692914D02*
X175714286Y-72740533D01*
X110674761Y-77110057D02*
X110579523Y-77062438D01*
X110579523Y-77062438D02*
X110484285Y-76967200D01*
X110484285Y-76967200D02*
X110341428Y-76824342D01*
X110341428Y-76824342D02*
X110246190Y-76776723D01*
X110246190Y-76776723D02*
X110150952Y-76776723D01*
X110198571Y-77014819D02*
X110103333Y-76967200D01*
X110103333Y-76967200D02*
X110008095Y-76871961D01*
X110008095Y-76871961D02*
X109960476Y-76681485D01*
X109960476Y-76681485D02*
X109960476Y-76348152D01*
X109960476Y-76348152D02*
X110008095Y-76157676D01*
X110008095Y-76157676D02*
X110103333Y-76062438D01*
X110103333Y-76062438D02*
X110198571Y-76014819D01*
X110198571Y-76014819D02*
X110389047Y-76014819D01*
X110389047Y-76014819D02*
X110484285Y-76062438D01*
X110484285Y-76062438D02*
X110579523Y-76157676D01*
X110579523Y-76157676D02*
X110627142Y-76348152D01*
X110627142Y-76348152D02*
X110627142Y-76681485D01*
X110627142Y-76681485D02*
X110579523Y-76871961D01*
X110579523Y-76871961D02*
X110484285Y-76967200D01*
X110484285Y-76967200D02*
X110389047Y-77014819D01*
X110389047Y-77014819D02*
X110198571Y-77014819D01*
X111579523Y-77014819D02*
X111008095Y-77014819D01*
X111293809Y-77014819D02*
X111293809Y-76014819D01*
X111293809Y-76014819D02*
X111198571Y-76157676D01*
X111198571Y-76157676D02*
X111103333Y-76252914D01*
X111103333Y-76252914D02*
X111008095Y-76300533D01*
X176857142Y-123254819D02*
X176523809Y-122778628D01*
X176285714Y-123254819D02*
X176285714Y-122254819D01*
X176285714Y-122254819D02*
X176666666Y-122254819D01*
X176666666Y-122254819D02*
X176761904Y-122302438D01*
X176761904Y-122302438D02*
X176809523Y-122350057D01*
X176809523Y-122350057D02*
X176857142Y-122445295D01*
X176857142Y-122445295D02*
X176857142Y-122588152D01*
X176857142Y-122588152D02*
X176809523Y-122683390D01*
X176809523Y-122683390D02*
X176761904Y-122731009D01*
X176761904Y-122731009D02*
X176666666Y-122778628D01*
X176666666Y-122778628D02*
X176285714Y-122778628D01*
X177809523Y-123254819D02*
X177238095Y-123254819D01*
X177523809Y-123254819D02*
X177523809Y-122254819D01*
X177523809Y-122254819D02*
X177428571Y-122397676D01*
X177428571Y-122397676D02*
X177333333Y-122492914D01*
X177333333Y-122492914D02*
X177238095Y-122540533D01*
X178190476Y-122350057D02*
X178238095Y-122302438D01*
X178238095Y-122302438D02*
X178333333Y-122254819D01*
X178333333Y-122254819D02*
X178571428Y-122254819D01*
X178571428Y-122254819D02*
X178666666Y-122302438D01*
X178666666Y-122302438D02*
X178714285Y-122350057D01*
X178714285Y-122350057D02*
X178761904Y-122445295D01*
X178761904Y-122445295D02*
X178761904Y-122540533D01*
X178761904Y-122540533D02*
X178714285Y-122683390D01*
X178714285Y-122683390D02*
X178142857Y-123254819D01*
X178142857Y-123254819D02*
X178761904Y-123254819D01*
X122333333Y-75954819D02*
X122000000Y-75478628D01*
X121761905Y-75954819D02*
X121761905Y-74954819D01*
X121761905Y-74954819D02*
X122142857Y-74954819D01*
X122142857Y-74954819D02*
X122238095Y-75002438D01*
X122238095Y-75002438D02*
X122285714Y-75050057D01*
X122285714Y-75050057D02*
X122333333Y-75145295D01*
X122333333Y-75145295D02*
X122333333Y-75288152D01*
X122333333Y-75288152D02*
X122285714Y-75383390D01*
X122285714Y-75383390D02*
X122238095Y-75431009D01*
X122238095Y-75431009D02*
X122142857Y-75478628D01*
X122142857Y-75478628D02*
X121761905Y-75478628D01*
X123190476Y-74954819D02*
X123000000Y-74954819D01*
X123000000Y-74954819D02*
X122904762Y-75002438D01*
X122904762Y-75002438D02*
X122857143Y-75050057D01*
X122857143Y-75050057D02*
X122761905Y-75192914D01*
X122761905Y-75192914D02*
X122714286Y-75383390D01*
X122714286Y-75383390D02*
X122714286Y-75764342D01*
X122714286Y-75764342D02*
X122761905Y-75859580D01*
X122761905Y-75859580D02*
X122809524Y-75907200D01*
X122809524Y-75907200D02*
X122904762Y-75954819D01*
X122904762Y-75954819D02*
X123095238Y-75954819D01*
X123095238Y-75954819D02*
X123190476Y-75907200D01*
X123190476Y-75907200D02*
X123238095Y-75859580D01*
X123238095Y-75859580D02*
X123285714Y-75764342D01*
X123285714Y-75764342D02*
X123285714Y-75526247D01*
X123285714Y-75526247D02*
X123238095Y-75431009D01*
X123238095Y-75431009D02*
X123190476Y-75383390D01*
X123190476Y-75383390D02*
X123095238Y-75335771D01*
X123095238Y-75335771D02*
X122904762Y-75335771D01*
X122904762Y-75335771D02*
X122809524Y-75383390D01*
X122809524Y-75383390D02*
X122761905Y-75431009D01*
X122761905Y-75431009D02*
X122714286Y-75526247D01*
X179857142Y-123254819D02*
X179523809Y-122778628D01*
X179285714Y-123254819D02*
X179285714Y-122254819D01*
X179285714Y-122254819D02*
X179666666Y-122254819D01*
X179666666Y-122254819D02*
X179761904Y-122302438D01*
X179761904Y-122302438D02*
X179809523Y-122350057D01*
X179809523Y-122350057D02*
X179857142Y-122445295D01*
X179857142Y-122445295D02*
X179857142Y-122588152D01*
X179857142Y-122588152D02*
X179809523Y-122683390D01*
X179809523Y-122683390D02*
X179761904Y-122731009D01*
X179761904Y-122731009D02*
X179666666Y-122778628D01*
X179666666Y-122778628D02*
X179285714Y-122778628D01*
X180809523Y-123254819D02*
X180238095Y-123254819D01*
X180523809Y-123254819D02*
X180523809Y-122254819D01*
X180523809Y-122254819D02*
X180428571Y-122397676D01*
X180428571Y-122397676D02*
X180333333Y-122492914D01*
X180333333Y-122492914D02*
X180238095Y-122540533D01*
X181761904Y-123254819D02*
X181190476Y-123254819D01*
X181476190Y-123254819D02*
X181476190Y-122254819D01*
X181476190Y-122254819D02*
X181380952Y-122397676D01*
X181380952Y-122397676D02*
X181285714Y-122492914D01*
X181285714Y-122492914D02*
X181190476Y-122540533D01*
X102833333Y-67454819D02*
X102500000Y-66978628D01*
X102261905Y-67454819D02*
X102261905Y-66454819D01*
X102261905Y-66454819D02*
X102642857Y-66454819D01*
X102642857Y-66454819D02*
X102738095Y-66502438D01*
X102738095Y-66502438D02*
X102785714Y-66550057D01*
X102785714Y-66550057D02*
X102833333Y-66645295D01*
X102833333Y-66645295D02*
X102833333Y-66788152D01*
X102833333Y-66788152D02*
X102785714Y-66883390D01*
X102785714Y-66883390D02*
X102738095Y-66931009D01*
X102738095Y-66931009D02*
X102642857Y-66978628D01*
X102642857Y-66978628D02*
X102261905Y-66978628D01*
X103166667Y-66454819D02*
X103833333Y-66454819D01*
X103833333Y-66454819D02*
X103404762Y-67454819D01*
X112333333Y-81954819D02*
X112000000Y-81478628D01*
X111761905Y-81954819D02*
X111761905Y-80954819D01*
X111761905Y-80954819D02*
X112142857Y-80954819D01*
X112142857Y-80954819D02*
X112238095Y-81002438D01*
X112238095Y-81002438D02*
X112285714Y-81050057D01*
X112285714Y-81050057D02*
X112333333Y-81145295D01*
X112333333Y-81145295D02*
X112333333Y-81288152D01*
X112333333Y-81288152D02*
X112285714Y-81383390D01*
X112285714Y-81383390D02*
X112238095Y-81431009D01*
X112238095Y-81431009D02*
X112142857Y-81478628D01*
X112142857Y-81478628D02*
X111761905Y-81478628D01*
X112809524Y-81954819D02*
X113000000Y-81954819D01*
X113000000Y-81954819D02*
X113095238Y-81907200D01*
X113095238Y-81907200D02*
X113142857Y-81859580D01*
X113142857Y-81859580D02*
X113238095Y-81716723D01*
X113238095Y-81716723D02*
X113285714Y-81526247D01*
X113285714Y-81526247D02*
X113285714Y-81145295D01*
X113285714Y-81145295D02*
X113238095Y-81050057D01*
X113238095Y-81050057D02*
X113190476Y-81002438D01*
X113190476Y-81002438D02*
X113095238Y-80954819D01*
X113095238Y-80954819D02*
X112904762Y-80954819D01*
X112904762Y-80954819D02*
X112809524Y-81002438D01*
X112809524Y-81002438D02*
X112761905Y-81050057D01*
X112761905Y-81050057D02*
X112714286Y-81145295D01*
X112714286Y-81145295D02*
X112714286Y-81383390D01*
X112714286Y-81383390D02*
X112761905Y-81478628D01*
X112761905Y-81478628D02*
X112809524Y-81526247D01*
X112809524Y-81526247D02*
X112904762Y-81573866D01*
X112904762Y-81573866D02*
X113095238Y-81573866D01*
X113095238Y-81573866D02*
X113190476Y-81526247D01*
X113190476Y-81526247D02*
X113238095Y-81478628D01*
X113238095Y-81478628D02*
X113285714Y-81383390D01*
X187333333Y-126359580D02*
X187285714Y-126407200D01*
X187285714Y-126407200D02*
X187142857Y-126454819D01*
X187142857Y-126454819D02*
X187047619Y-126454819D01*
X187047619Y-126454819D02*
X186904762Y-126407200D01*
X186904762Y-126407200D02*
X186809524Y-126311961D01*
X186809524Y-126311961D02*
X186761905Y-126216723D01*
X186761905Y-126216723D02*
X186714286Y-126026247D01*
X186714286Y-126026247D02*
X186714286Y-125883390D01*
X186714286Y-125883390D02*
X186761905Y-125692914D01*
X186761905Y-125692914D02*
X186809524Y-125597676D01*
X186809524Y-125597676D02*
X186904762Y-125502438D01*
X186904762Y-125502438D02*
X187047619Y-125454819D01*
X187047619Y-125454819D02*
X187142857Y-125454819D01*
X187142857Y-125454819D02*
X187285714Y-125502438D01*
X187285714Y-125502438D02*
X187333333Y-125550057D01*
X188285714Y-126454819D02*
X187714286Y-126454819D01*
X188000000Y-126454819D02*
X188000000Y-125454819D01*
X188000000Y-125454819D02*
X187904762Y-125597676D01*
X187904762Y-125597676D02*
X187809524Y-125692914D01*
X187809524Y-125692914D02*
X187714286Y-125740533D01*
X187666666Y-93431009D02*
X187333333Y-93431009D01*
X187333333Y-93954819D02*
X187333333Y-92954819D01*
X187333333Y-92954819D02*
X187809523Y-92954819D01*
X188714285Y-93954819D02*
X188142857Y-93954819D01*
X188428571Y-93954819D02*
X188428571Y-92954819D01*
X188428571Y-92954819D02*
X188333333Y-93097676D01*
X188333333Y-93097676D02*
X188238095Y-93192914D01*
X188238095Y-93192914D02*
X188142857Y-93240533D01*
X141333333Y-84454819D02*
X141000000Y-83978628D01*
X140761905Y-84454819D02*
X140761905Y-83454819D01*
X140761905Y-83454819D02*
X141142857Y-83454819D01*
X141142857Y-83454819D02*
X141238095Y-83502438D01*
X141238095Y-83502438D02*
X141285714Y-83550057D01*
X141285714Y-83550057D02*
X141333333Y-83645295D01*
X141333333Y-83645295D02*
X141333333Y-83788152D01*
X141333333Y-83788152D02*
X141285714Y-83883390D01*
X141285714Y-83883390D02*
X141238095Y-83931009D01*
X141238095Y-83931009D02*
X141142857Y-83978628D01*
X141142857Y-83978628D02*
X140761905Y-83978628D01*
X141666667Y-83454819D02*
X142285714Y-83454819D01*
X142285714Y-83454819D02*
X141952381Y-83835771D01*
X141952381Y-83835771D02*
X142095238Y-83835771D01*
X142095238Y-83835771D02*
X142190476Y-83883390D01*
X142190476Y-83883390D02*
X142238095Y-83931009D01*
X142238095Y-83931009D02*
X142285714Y-84026247D01*
X142285714Y-84026247D02*
X142285714Y-84264342D01*
X142285714Y-84264342D02*
X142238095Y-84359580D01*
X142238095Y-84359580D02*
X142190476Y-84407200D01*
X142190476Y-84407200D02*
X142095238Y-84454819D01*
X142095238Y-84454819D02*
X141809524Y-84454819D01*
X141809524Y-84454819D02*
X141714286Y-84407200D01*
X141714286Y-84407200D02*
X141666667Y-84359580D01*
X187357142Y-129454819D02*
X187023809Y-128978628D01*
X186785714Y-129454819D02*
X186785714Y-128454819D01*
X186785714Y-128454819D02*
X187166666Y-128454819D01*
X187166666Y-128454819D02*
X187261904Y-128502438D01*
X187261904Y-128502438D02*
X187309523Y-128550057D01*
X187309523Y-128550057D02*
X187357142Y-128645295D01*
X187357142Y-128645295D02*
X187357142Y-128788152D01*
X187357142Y-128788152D02*
X187309523Y-128883390D01*
X187309523Y-128883390D02*
X187261904Y-128931009D01*
X187261904Y-128931009D02*
X187166666Y-128978628D01*
X187166666Y-128978628D02*
X186785714Y-128978628D01*
X188309523Y-129454819D02*
X187738095Y-129454819D01*
X188023809Y-129454819D02*
X188023809Y-128454819D01*
X188023809Y-128454819D02*
X187928571Y-128597676D01*
X187928571Y-128597676D02*
X187833333Y-128692914D01*
X187833333Y-128692914D02*
X187738095Y-128740533D01*
X188928571Y-128454819D02*
X189023809Y-128454819D01*
X189023809Y-128454819D02*
X189119047Y-128502438D01*
X189119047Y-128502438D02*
X189166666Y-128550057D01*
X189166666Y-128550057D02*
X189214285Y-128645295D01*
X189214285Y-128645295D02*
X189261904Y-128835771D01*
X189261904Y-128835771D02*
X189261904Y-129073866D01*
X189261904Y-129073866D02*
X189214285Y-129264342D01*
X189214285Y-129264342D02*
X189166666Y-129359580D01*
X189166666Y-129359580D02*
X189119047Y-129407200D01*
X189119047Y-129407200D02*
X189023809Y-129454819D01*
X189023809Y-129454819D02*
X188928571Y-129454819D01*
X188928571Y-129454819D02*
X188833333Y-129407200D01*
X188833333Y-129407200D02*
X188785714Y-129359580D01*
X188785714Y-129359580D02*
X188738095Y-129264342D01*
X188738095Y-129264342D02*
X188690476Y-129073866D01*
X188690476Y-129073866D02*
X188690476Y-128835771D01*
X188690476Y-128835771D02*
X188738095Y-128645295D01*
X188738095Y-128645295D02*
X188785714Y-128550057D01*
X188785714Y-128550057D02*
X188833333Y-128502438D01*
X188833333Y-128502438D02*
X188928571Y-128454819D01*
X110531905Y-63454819D02*
X110531905Y-62454819D01*
X110531905Y-62454819D02*
X110770000Y-62454819D01*
X110770000Y-62454819D02*
X110912857Y-62502438D01*
X110912857Y-62502438D02*
X111008095Y-62597676D01*
X111008095Y-62597676D02*
X111055714Y-62692914D01*
X111055714Y-62692914D02*
X111103333Y-62883390D01*
X111103333Y-62883390D02*
X111103333Y-63026247D01*
X111103333Y-63026247D02*
X111055714Y-63216723D01*
X111055714Y-63216723D02*
X111008095Y-63311961D01*
X111008095Y-63311961D02*
X110912857Y-63407200D01*
X110912857Y-63407200D02*
X110770000Y-63454819D01*
X110770000Y-63454819D02*
X110531905Y-63454819D01*
X112055714Y-63454819D02*
X111484286Y-63454819D01*
X111770000Y-63454819D02*
X111770000Y-62454819D01*
X111770000Y-62454819D02*
X111674762Y-62597676D01*
X111674762Y-62597676D02*
X111579524Y-62692914D01*
X111579524Y-62692914D02*
X111484286Y-62740533D01*
X177333333Y-114859580D02*
X177285714Y-114907200D01*
X177285714Y-114907200D02*
X177142857Y-114954819D01*
X177142857Y-114954819D02*
X177047619Y-114954819D01*
X177047619Y-114954819D02*
X176904762Y-114907200D01*
X176904762Y-114907200D02*
X176809524Y-114811961D01*
X176809524Y-114811961D02*
X176761905Y-114716723D01*
X176761905Y-114716723D02*
X176714286Y-114526247D01*
X176714286Y-114526247D02*
X176714286Y-114383390D01*
X176714286Y-114383390D02*
X176761905Y-114192914D01*
X176761905Y-114192914D02*
X176809524Y-114097676D01*
X176809524Y-114097676D02*
X176904762Y-114002438D01*
X176904762Y-114002438D02*
X177047619Y-113954819D01*
X177047619Y-113954819D02*
X177142857Y-113954819D01*
X177142857Y-113954819D02*
X177285714Y-114002438D01*
X177285714Y-114002438D02*
X177333333Y-114050057D01*
X177714286Y-114050057D02*
X177761905Y-114002438D01*
X177761905Y-114002438D02*
X177857143Y-113954819D01*
X177857143Y-113954819D02*
X178095238Y-113954819D01*
X178095238Y-113954819D02*
X178190476Y-114002438D01*
X178190476Y-114002438D02*
X178238095Y-114050057D01*
X178238095Y-114050057D02*
X178285714Y-114145295D01*
X178285714Y-114145295D02*
X178285714Y-114240533D01*
X178285714Y-114240533D02*
X178238095Y-114383390D01*
X178238095Y-114383390D02*
X177666667Y-114954819D01*
X177666667Y-114954819D02*
X178285714Y-114954819D01*
X108838095Y-123454819D02*
X108838095Y-124264342D01*
X108838095Y-124264342D02*
X108885714Y-124359580D01*
X108885714Y-124359580D02*
X108933333Y-124407200D01*
X108933333Y-124407200D02*
X109028571Y-124454819D01*
X109028571Y-124454819D02*
X109219047Y-124454819D01*
X109219047Y-124454819D02*
X109314285Y-124407200D01*
X109314285Y-124407200D02*
X109361904Y-124359580D01*
X109361904Y-124359580D02*
X109409523Y-124264342D01*
X109409523Y-124264342D02*
X109409523Y-123454819D01*
X109838095Y-123550057D02*
X109885714Y-123502438D01*
X109885714Y-123502438D02*
X109980952Y-123454819D01*
X109980952Y-123454819D02*
X110219047Y-123454819D01*
X110219047Y-123454819D02*
X110314285Y-123502438D01*
X110314285Y-123502438D02*
X110361904Y-123550057D01*
X110361904Y-123550057D02*
X110409523Y-123645295D01*
X110409523Y-123645295D02*
X110409523Y-123740533D01*
X110409523Y-123740533D02*
X110361904Y-123883390D01*
X110361904Y-123883390D02*
X109790476Y-124454819D01*
X109790476Y-124454819D02*
X110409523Y-124454819D01*
D13*
%TO.C,J3*%
X185840000Y-89660000D02*
X185840000Y-88240000D01*
X197560000Y-89660000D02*
X185840000Y-89660000D01*
X185840000Y-88240000D02*
X190340000Y-88240000D01*
X190340000Y-88240000D02*
X190340000Y-78350000D01*
X186150000Y-87400000D02*
X186150000Y-86800000D01*
X191450000Y-87350000D02*
X196950000Y-87350000D01*
X196950000Y-87350000D02*
X196950000Y-86850000D01*
X186750000Y-87100000D02*
X186150000Y-87400000D01*
X191450000Y-86850000D02*
X191450000Y-87350000D01*
X196950000Y-86850000D02*
X191450000Y-86850000D01*
X186150000Y-86800000D02*
X186750000Y-87100000D01*
X191450000Y-84850000D02*
X196950000Y-84850000D01*
X196950000Y-84850000D02*
X196950000Y-84350000D01*
X191450000Y-84350000D02*
X191450000Y-84850000D01*
X196950000Y-84350000D02*
X191450000Y-84350000D01*
X191450000Y-82350000D02*
X196950000Y-82350000D01*
X196950000Y-82350000D02*
X196950000Y-81850000D01*
X191450000Y-81850000D02*
X191450000Y-82350000D01*
X196950000Y-81850000D02*
X191450000Y-81850000D01*
X191450000Y-79850000D02*
X196950000Y-79850000D01*
X196950000Y-79850000D02*
X196950000Y-79350000D01*
X191450000Y-79350000D02*
X191450000Y-79850000D01*
X196950000Y-79350000D02*
X191450000Y-79350000D01*
X197560000Y-78350000D02*
X197560000Y-89660000D01*
X197560000Y-78350000D02*
X197560000Y-67040000D01*
X191450000Y-77350000D02*
X196950000Y-77350000D01*
X196950000Y-77350000D02*
X196950000Y-76850000D01*
X191450000Y-76850000D02*
X191450000Y-77350000D01*
X196950000Y-76850000D02*
X191450000Y-76850000D01*
X191450000Y-74850000D02*
X196950000Y-74850000D01*
X196950000Y-74850000D02*
X196950000Y-74350000D01*
X191450000Y-74350000D02*
X191450000Y-74850000D01*
X196950000Y-74350000D02*
X191450000Y-74350000D01*
X191450000Y-72350000D02*
X196950000Y-72350000D01*
X196950000Y-72350000D02*
X196950000Y-71850000D01*
X191450000Y-71850000D02*
X191450000Y-72350000D01*
X196950000Y-71850000D02*
X191450000Y-71850000D01*
X191450000Y-69850000D02*
X196950000Y-69850000D01*
X196950000Y-69850000D02*
X196950000Y-69350000D01*
X191450000Y-69350000D02*
X191450000Y-69850000D01*
X196950000Y-69350000D02*
X191450000Y-69350000D01*
X185840000Y-68460000D02*
X190340000Y-68460000D01*
X190340000Y-68460000D02*
X190340000Y-78350000D01*
X185840000Y-67040000D02*
X185840000Y-68460000D01*
X197560000Y-67040000D02*
X185840000Y-67040000D01*
%TO.C,R5*%
X104130000Y-79730000D02*
X104130000Y-86270000D01*
X104130000Y-86270000D02*
X106870000Y-86270000D01*
X105500000Y-78960000D02*
X105500000Y-79730000D01*
X105500000Y-87040000D02*
X105500000Y-86270000D01*
X106870000Y-79730000D02*
X104130000Y-79730000D01*
X106870000Y-86270000D02*
X106870000Y-79730000D01*
%TO.C,R2*%
X177130000Y-86480000D02*
X177130000Y-93020000D01*
X177130000Y-93020000D02*
X179870000Y-93020000D01*
X178500000Y-85710000D02*
X178500000Y-86480000D01*
X178500000Y-93790000D02*
X178500000Y-93020000D01*
X179870000Y-86480000D02*
X177130000Y-86480000D01*
X179870000Y-93020000D02*
X179870000Y-86480000D01*
%TO.C,R8*%
X108130000Y-95730000D02*
X108130000Y-102270000D01*
X108130000Y-102270000D02*
X110870000Y-102270000D01*
X109500000Y-94960000D02*
X109500000Y-95730000D01*
X109500000Y-103040000D02*
X109500000Y-102270000D01*
X110870000Y-95730000D02*
X108130000Y-95730000D01*
X110870000Y-102270000D02*
X110870000Y-95730000D01*
%TO.C,C3*%
X179430000Y-107730000D02*
X179430000Y-112270000D01*
X179445000Y-107730000D02*
X179430000Y-107730000D01*
X179445000Y-112270000D02*
X179430000Y-112270000D01*
X181570000Y-107730000D02*
X181555000Y-107730000D01*
X181570000Y-107730000D02*
X181570000Y-112270000D01*
X181570000Y-112270000D02*
X181555000Y-112270000D01*
%TO.C,J1*%
X150470000Y-57390000D02*
X151800000Y-57390000D01*
X150470000Y-58720000D02*
X150470000Y-57390000D01*
X150470000Y-59990000D02*
X150470000Y-72750000D01*
X150470000Y-59990000D02*
X153130000Y-59990000D01*
X150470000Y-72750000D02*
X153130000Y-72750000D01*
X153130000Y-59990000D02*
X153130000Y-72750000D01*
%TO.C,J5*%
X135970000Y-79630000D02*
X135970000Y-71950000D01*
X138630000Y-71950000D02*
X135970000Y-71950000D01*
X138630000Y-79630000D02*
X135970000Y-79630000D01*
X138630000Y-79630000D02*
X138630000Y-71950000D01*
X138630000Y-80900000D02*
X138630000Y-82230000D01*
X138630000Y-82230000D02*
X137300000Y-82230000D01*
%TO.C,R4*%
X144630000Y-73730000D02*
X144630000Y-80270000D01*
X144630000Y-80270000D02*
X147370000Y-80270000D01*
X146000000Y-72960000D02*
X146000000Y-73730000D01*
X146000000Y-81040000D02*
X146000000Y-80270000D01*
X147370000Y-73730000D02*
X144630000Y-73730000D01*
X147370000Y-80270000D02*
X147370000Y-73730000D01*
%TO.C,U1*%
D10*
X118690000Y-120160000D02*
X123770000Y-120160000D01*
X123770000Y-99840000D01*
X118690000Y-99840000D01*
X118690000Y-120160000D01*
X123770000Y-125240000D02*
X174570000Y-125240000D01*
X174570000Y-94760000D01*
X123770000Y-94760000D01*
X123770000Y-125240000D01*
D13*
%TO.C,J4*%
X128370000Y-79630000D02*
X128370000Y-71950000D01*
X131030000Y-71950000D02*
X128370000Y-71950000D01*
X131030000Y-79630000D02*
X128370000Y-79630000D01*
X131030000Y-79630000D02*
X131030000Y-71950000D01*
X131030000Y-80900000D02*
X131030000Y-82230000D01*
X131030000Y-82230000D02*
X129700000Y-82230000D01*
%TO.C,U3*%
X176740000Y-103550000D02*
X176740000Y-101050000D01*
X181460000Y-101050000D02*
X181460000Y-103550000D01*
X181640000Y-100770000D02*
X181310000Y-100530000D01*
X181640000Y-100290000D01*
X181640000Y-100770000D01*
G36*
X181640000Y-100770000D02*
G01*
X181310000Y-100530000D01*
X181640000Y-100290000D01*
X181640000Y-100770000D01*
G37*
%TO.C,D2*%
X186470000Y-96530000D02*
X191910000Y-96530000D01*
X186470000Y-96660000D02*
X186470000Y-96530000D01*
X186470000Y-99340000D02*
X186470000Y-99470000D01*
X186470000Y-99470000D02*
X191910000Y-99470000D01*
X187250000Y-96530000D02*
X187250000Y-99470000D01*
X187370000Y-96530000D02*
X187370000Y-99470000D01*
X187490000Y-96530000D02*
X187490000Y-99470000D01*
X191910000Y-96530000D02*
X191910000Y-96660000D01*
X191910000Y-99470000D02*
X191910000Y-99340000D01*
%TO.C,J2*%
X128190000Y-55640000D02*
X128190000Y-67360000D01*
X128190000Y-67360000D02*
X129610000Y-67360000D01*
X129610000Y-67360000D02*
X129610000Y-62860000D01*
X130500000Y-56250000D02*
X130500000Y-61750000D01*
X130500000Y-61750000D02*
X131000000Y-61750000D01*
X131000000Y-56250000D02*
X130500000Y-56250000D01*
X131000000Y-61750000D02*
X131000000Y-56250000D01*
X133000000Y-56250000D02*
X133000000Y-61750000D01*
X133000000Y-61750000D02*
X133500000Y-61750000D01*
X133500000Y-56250000D02*
X133000000Y-56250000D01*
X133500000Y-61750000D02*
X133500000Y-56250000D01*
X134500000Y-55640000D02*
X128190000Y-55640000D01*
X134500000Y-55640000D02*
X140810000Y-55640000D01*
X135500000Y-56250000D02*
X135500000Y-61750000D01*
X135500000Y-61750000D02*
X136000000Y-61750000D01*
X136000000Y-56250000D02*
X135500000Y-56250000D01*
X136000000Y-61750000D02*
X136000000Y-56250000D01*
X137950000Y-65450000D02*
X138250000Y-64850000D01*
X138000000Y-56250000D02*
X138000000Y-61750000D01*
X138000000Y-61750000D02*
X138500000Y-61750000D01*
X138250000Y-64850000D02*
X138550000Y-65450000D01*
X138500000Y-56250000D02*
X138000000Y-56250000D01*
X138500000Y-61750000D02*
X138500000Y-56250000D01*
X138550000Y-65450000D02*
X137950000Y-65450000D01*
X139390000Y-67360000D02*
X139390000Y-62860000D01*
X140810000Y-55640000D02*
X140810000Y-67360000D01*
X140810000Y-67360000D02*
X139390000Y-67360000D01*
%TO.C,R1*%
X177130000Y-71230000D02*
X177130000Y-77770000D01*
X177130000Y-77770000D02*
X179870000Y-77770000D01*
X178500000Y-70460000D02*
X178500000Y-71230000D01*
X178500000Y-78540000D02*
X178500000Y-77770000D01*
X179870000Y-71230000D02*
X177130000Y-71230000D01*
X179870000Y-77770000D02*
X179870000Y-71230000D01*
%TO.C,Q1*%
X112570000Y-71150000D02*
X108970000Y-71150000D01*
X110770000Y-75600000D02*
G75*
G02*
X108931522Y-71161522I0J2600000D01*
G01*
X112608478Y-71161522D02*
G75*
G02*
X110770000Y-75600001I-1838478J-1838478D01*
G01*
%TO.C,J8*%
X183170000Y-116230000D02*
X183170000Y-100930000D01*
X185830000Y-100930000D02*
X183170000Y-100930000D01*
X185830000Y-116230000D02*
X183170000Y-116230000D01*
X185830000Y-116230000D02*
X185830000Y-100930000D01*
X185830000Y-117500000D02*
X185830000Y-118830000D01*
X185830000Y-118830000D02*
X184500000Y-118830000D01*
%TO.C,R12*%
X176580000Y-116620000D02*
X176580000Y-120460000D01*
X178420000Y-116620000D02*
X178420000Y-120460000D01*
%TO.C,R6*%
X124130000Y-73730000D02*
X124130000Y-80270000D01*
X124130000Y-80270000D02*
X126870000Y-80270000D01*
X125500000Y-72960000D02*
X125500000Y-73730000D01*
X125500000Y-81040000D02*
X125500000Y-80270000D01*
X126870000Y-73730000D02*
X124130000Y-73730000D01*
X126870000Y-80270000D02*
X126870000Y-73730000D01*
%TO.C,R11*%
X179580000Y-116620000D02*
X179580000Y-120460000D01*
X181420000Y-116620000D02*
X181420000Y-120460000D01*
%TO.C,J6*%
X190670000Y-103830000D02*
X190670000Y-102500000D01*
X192000000Y-103830000D02*
X190670000Y-103830000D01*
X193270000Y-101170000D02*
X195870000Y-101170000D01*
X193270000Y-103830000D02*
X193270000Y-101170000D01*
X193270000Y-103830000D02*
X195870000Y-103830000D01*
X195870000Y-103830000D02*
X195870000Y-101170000D01*
%TO.C,R7*%
X104130000Y-64650000D02*
X104130000Y-71190000D01*
X104130000Y-71190000D02*
X106870000Y-71190000D01*
X105500000Y-63880000D02*
X105500000Y-64650000D01*
X105500000Y-71960000D02*
X105500000Y-71190000D01*
X106870000Y-64650000D02*
X104130000Y-64650000D01*
X106870000Y-71190000D02*
X106870000Y-64650000D01*
%TO.C,R9*%
X108130000Y-79730000D02*
X108130000Y-86270000D01*
X108130000Y-86270000D02*
X110870000Y-86270000D01*
X109500000Y-78960000D02*
X109500000Y-79730000D01*
X109500000Y-87040000D02*
X109500000Y-86270000D01*
X110870000Y-79730000D02*
X108130000Y-79730000D01*
X110870000Y-86270000D02*
X110870000Y-79730000D01*
%TO.C,C1*%
X180730000Y-124945000D02*
X180730000Y-124930000D01*
X180730000Y-127070000D02*
X180730000Y-127055000D01*
X185270000Y-124930000D02*
X180730000Y-124930000D01*
X185270000Y-124945000D02*
X185270000Y-124930000D01*
X185270000Y-127070000D02*
X180730000Y-127070000D01*
X185270000Y-127070000D02*
X185270000Y-127055000D01*
%TO.C,F1*%
X182630000Y-96120000D02*
X182630000Y-90880000D01*
X193370000Y-90880000D02*
X182630000Y-90880000D01*
X193370000Y-96120000D02*
X182630000Y-96120000D01*
X193370000Y-96120000D02*
X193370000Y-90880000D01*
%TO.C,R3*%
X140130000Y-73730000D02*
X140130000Y-80270000D01*
X140130000Y-80270000D02*
X142870000Y-80270000D01*
X141500000Y-72960000D02*
X141500000Y-73730000D01*
X141500000Y-81040000D02*
X141500000Y-80270000D01*
X142870000Y-73730000D02*
X140130000Y-73730000D01*
X142870000Y-80270000D02*
X142870000Y-73730000D01*
%TO.C,R10*%
X176460000Y-129000000D02*
X177230000Y-129000000D01*
X177230000Y-127630000D02*
X177230000Y-130370000D01*
X177230000Y-130370000D02*
X183770000Y-130370000D01*
X183770000Y-127630000D02*
X177230000Y-127630000D01*
X183770000Y-130370000D02*
X183770000Y-127630000D01*
X184540000Y-129000000D02*
X183770000Y-129000000D01*
%TO.C,D1*%
X108710000Y-57455000D02*
X108710000Y-60545000D01*
X108710000Y-57455170D02*
G75*
G02*
X114260000Y-58999952I2560000J-1544830D01*
G01*
X114260000Y-59000048D02*
G75*
G02*
X108710000Y-60544830I-2990000J48D01*
G01*
X113770000Y-59000000D02*
G75*
G02*
X108770000Y-59000000I-2500000J0D01*
G01*
X108770000Y-59000000D02*
G75*
G02*
X113770000Y-59000000I2500000J0D01*
G01*
%TO.C,C2*%
X176430000Y-107730000D02*
X176430000Y-112270000D01*
X176445000Y-107730000D02*
X176430000Y-107730000D01*
X176445000Y-112270000D02*
X176430000Y-112270000D01*
X178570000Y-107730000D02*
X178555000Y-107730000D01*
X178570000Y-107730000D02*
X178570000Y-112270000D01*
X178570000Y-112270000D02*
X178555000Y-112270000D01*
%TO.C,J7*%
X190670000Y-118830000D02*
X190670000Y-117500000D01*
X192000000Y-118830000D02*
X190670000Y-118830000D01*
X193270000Y-116170000D02*
X195870000Y-116170000D01*
X193270000Y-118830000D02*
X193270000Y-116170000D01*
X193270000Y-118830000D02*
X195870000Y-118830000D01*
X195870000Y-118830000D02*
X195870000Y-116170000D01*
%TO.C,U2*%
X107000000Y-120985000D02*
X106780000Y-120985000D01*
X112580000Y-117325000D02*
X109500000Y-117325000D01*
X112660000Y-120985000D02*
X112200000Y-120985000D01*
X112660000Y-120985000D02*
X112660000Y-119785000D01*
X112200000Y-120985000D02*
G75*
G02*
X107000000Y-120985000I-2600000J1100000D01*
G01*
%TD*%
M02*
