M48
; DRILL file {KiCad 9.0.0} date 2025-11-09T18:10:35+0900
; FORMAT={-:-/ absolute / metric / decimal}
; #@! TF.CreationDate,2025-11-09T18:10:35+09:00
; #@! TF.GenerationSoftware,Kicad,Pcbnew,9.0.0
; #@! TF.FileFunction,Plated,1,2,PTH
FMAT,2
METRIC
; #@! TA.AperFunction,Plated,PTH,ViaDrill
T1C0.300
; #@! TA.AperFunction,Plated,PTH,ComponentDrill
T2C0.500
; #@! TA.AperFunction,Plated,PTH,ComponentDrill
T3C0.700
; #@! TA.AperFunction,Plated,PTH,ComponentDrill
T4C0.750
; #@! TA.AperFunction,Plated,PTH,ComponentDrill
T5C0.762
; #@! TA.AperFunction,Plated,PTH,ComponentDrill
T6C0.800
; #@! TA.AperFunction,Plated,PTH,ComponentDrill
T7C0.900
; #@! TA.AperFunction,Plated,PTH,ComponentDrill
T8C0.950
; #@! TA.AperFunction,Plated,PTH,ComponentDrill
T9C1.000
; #@! TA.AperFunction,Plated,PTH,ComponentDrill
T10C1.100
; #@! TA.AperFunction,Plated,PTH,ComponentDrill
T11C3.200
%
G90
G05
T1
X100.0Y-70.0
X100.0Y-75.0
X100.0Y-80.0
X100.0Y-85.0
X100.0Y-90.0
X100.0Y-95.0
X100.0Y-100.0
X100.0Y-105.0
X100.0Y-110.0
X100.0Y-115.0
X100.0Y-120.0
X100.0Y-125.0
X105.0Y-65.0
X105.0Y-70.0
X105.0Y-75.0
X105.0Y-80.0
X105.0Y-85.0
X105.0Y-115.0
X105.0Y-120.0
X105.0Y-125.0
X105.0Y-130.0
X108.0Y-107.0
X109.0Y-75.0
X110.0Y-65.0
X110.0Y-70.0
X110.0Y-80.0
X110.0Y-85.0
X110.0Y-90.0
X110.0Y-100.0
X110.0Y-125.0
X110.0Y-130.0
X111.0Y-113.5
X115.0Y-125.0
X115.0Y-130.0
X116.5Y-65.0
X116.5Y-70.0
X116.5Y-75.0
X116.5Y-80.0
X116.5Y-85.0
X116.5Y-90.0
X116.5Y-95.0
X116.5Y-100.0
X116.5Y-105.0
X116.5Y-110.0
X117.5Y-113.5
X119.2Y-122.7
X119.5Y-70.0
X119.5Y-75.0
X119.5Y-80.0
X119.5Y-85.0
X119.5Y-90.0
X119.5Y-95.0
X119.5Y-100.0
X119.5Y-105.0
X120.0Y-65.0
X120.0Y-110.0
X120.0Y-125.0
X120.5Y-113.5
X121.0Y-117.0
X124.0Y-120.0
X124.5Y-114.5
X125.0Y-65.0
X125.0Y-80.0
X125.0Y-85.0
X125.0Y-90.0
X125.0Y-95.0
X125.0Y-105.0
X129.0Y-117.5
X130.0Y-70.0
X130.0Y-85.0
X130.0Y-90.0
X130.0Y-100.0
X130.0Y-110.0
X130.0Y-125.0
X130.0Y-130.0
X133.0Y-121.0
X134.0Y-117.5
X135.0Y-85.0
X135.0Y-95.5
X135.0Y-100.0
X135.0Y-105.0
X135.0Y-125.0
X135.0Y-130.0
X136.5Y-90.0
X140.0Y-65.0
X140.0Y-70.0
X140.0Y-100.0
X140.0Y-105.0
X140.0Y-110.0
X140.0Y-125.0
X140.0Y-130.0
X141.5Y-74.5
X141.5Y-77.5
X141.5Y-90.0
X144.0Y-94.0
X145.0Y-100.0
X145.0Y-105.0
X145.0Y-110.0
X145.0Y-115.0
X145.0Y-125.0
X145.0Y-130.0
X145.5Y-74.5
X146.0Y-79.5
X150.0Y-79.0
X150.0Y-100.0
X150.0Y-105.0
X150.0Y-115.0
X150.0Y-120.0
X150.0Y-125.0
X150.0Y-130.0
X152.0Y-75.0
X155.0Y-66.0
X155.0Y-100.0
X155.0Y-105.0
X155.0Y-109.88
X155.0Y-115.0
X155.0Y-120.0
X155.0Y-125.0
X155.0Y-130.0
X159.0Y-66.0
X160.0Y-100.0
X160.0Y-105.0
X160.0Y-109.88
X160.0Y-125.0
X160.0Y-130.0
X165.0Y-65.0
X165.0Y-90.0
X165.0Y-95.0
X165.0Y-100.0
X165.0Y-105.0
X165.0Y-109.88
X165.0Y-115.0
X165.0Y-120.0
X165.0Y-125.0
X165.0Y-130.0
X170.0Y-65.0
X170.0Y-90.0
X170.0Y-95.0
X170.0Y-100.0
X170.0Y-105.0
X170.0Y-109.88
X170.0Y-115.0
X170.0Y-120.0
X170.0Y-130.0
X175.0Y-60.0
X175.0Y-70.0
X175.0Y-95.0
X175.0Y-105.0
X175.0Y-120.0
X175.0Y-125.0
X180.0Y-65.0
X180.0Y-90.0
X180.25Y-123.0
X181.0Y-109.88
X183.0Y-72.0
X185.0Y-65.0
X185.0Y-90.0
X185.0Y-120.0
X188.0Y-97.0
X190.0Y-65.0
X190.0Y-90.0
X190.0Y-105.0
X190.0Y-110.0
X190.0Y-115.0
X195.0Y-65.0
X195.0Y-70.0
X195.0Y-75.0
X195.0Y-85.0
X195.0Y-90.0
X195.0Y-95.0
X195.0Y-125.0
T2
X119.6Y-59.0
X119.6Y-131.0
X120.303Y-57.303
X120.303Y-60.697
X120.303Y-129.303
X120.303Y-132.697
X122.0Y-56.6
X122.0Y-61.4
X122.0Y-128.6
X122.0Y-133.4
X123.697Y-57.303
X123.697Y-60.697
X123.697Y-129.303
X123.697Y-132.697
X124.4Y-59.0
X124.4Y-131.0
X191.653Y-58.947
X191.653Y-130.947
X192.356Y-57.25
X192.356Y-60.644
X192.356Y-129.25
X192.356Y-132.644
X194.053Y-56.547
X194.053Y-61.347
X194.053Y-128.547
X194.053Y-133.347
X195.75Y-57.25
X195.75Y-60.644
X195.75Y-129.25
X195.75Y-132.644
X196.453Y-58.947
X196.453Y-130.947
T3
X177.5Y-116.0
X177.5Y-121.08
X180.5Y-116.0
X180.5Y-121.08
T4
X109.5Y-73.0
X110.77Y-73.0
X112.04Y-73.0
T5
X126.31Y-97.3
X126.31Y-122.7
X128.85Y-97.3
X128.85Y-122.7
X131.39Y-97.3
X131.39Y-122.7
X133.93Y-97.3
X133.93Y-122.7
X136.47Y-97.3
X136.47Y-122.7
X139.01Y-97.3
X139.01Y-122.7
X141.55Y-97.3
X141.55Y-122.7
X144.09Y-97.3
X144.09Y-122.7
X146.63Y-97.3
X146.63Y-122.7
X149.17Y-97.3
X149.17Y-122.7
X151.71Y-97.3
X151.71Y-122.7
X154.25Y-97.3
X154.25Y-122.7
X156.79Y-97.3
X156.79Y-122.7
X159.33Y-97.3
X159.33Y-122.7
X161.87Y-97.3
X161.87Y-122.7
X164.41Y-97.3
X164.41Y-122.7
X166.95Y-97.3
X166.95Y-122.7
X169.49Y-97.3
X169.49Y-122.7
X172.03Y-97.3
X172.03Y-122.7
T6
X105.5Y-62.84
X105.5Y-73.0
X105.5Y-77.92
X105.5Y-88.08
X109.5Y-77.92
X109.5Y-88.08
X109.5Y-93.92
X109.5Y-104.08
X125.5Y-71.92
X125.5Y-82.08
X141.5Y-71.92
X141.5Y-82.08
X146.0Y-71.92
X146.0Y-82.08
X175.42Y-129.0
X177.5Y-107.5
X177.5Y-112.5
X178.5Y-69.42
X178.5Y-79.58
X178.5Y-84.67
X178.5Y-94.83
X180.5Y-107.5
X180.5Y-112.5
X180.5Y-126.0
X185.5Y-126.0
X185.58Y-129.0
T7
X106.96Y-118.685
X109.5Y-118.685
X110.0Y-59.0
X112.04Y-118.685
X112.54Y-59.0
T8
X130.75Y-63.35
X133.25Y-63.35
X135.75Y-63.35
X138.25Y-63.35
X188.25Y-69.6
X188.25Y-72.1
X188.25Y-74.6
X188.25Y-77.1
X188.25Y-79.6
X188.25Y-82.1
X188.25Y-84.6
X188.25Y-87.1
T9
X129.7Y-73.28
X129.7Y-75.82
X129.7Y-78.36
X129.7Y-80.9
X137.3Y-73.28
X137.3Y-75.82
X137.3Y-78.36
X137.3Y-80.9
X151.8Y-58.72
X151.8Y-61.26
X151.8Y-63.8
X151.8Y-66.34
X151.8Y-68.88
X151.8Y-71.42
X184.5Y-102.26
X184.5Y-104.8
X184.5Y-107.34
X184.5Y-109.88
X184.5Y-112.42
X184.5Y-114.96
X184.5Y-117.5
X185.5Y-93.5
X190.5Y-93.5
X192.0Y-102.5
X192.0Y-117.5
X194.54Y-102.5
X194.54Y-117.5
T10
X185.38Y-98.0
X193.0Y-98.0
T11
X122.0Y-59.0
X122.0Y-131.0
X194.053Y-58.947
X194.053Y-130.947
M30
