%TF.GenerationSoftware,KiCad,Pcbnew,9.0.0*%
%TF.CreationDate,2025-11-09T18:10:32+09:00*%
%TF.ProjectId,temperature_monitor,74656d70-6572-4617-9475-72655f6d6f6e,0.1.1*%
%TF.SameCoordinates,Original*%
%TF.FileFunction,Profile,NP*%
%FSLAX46Y46*%
G04 Gerber Fmt 4.6, Leading zero omitted, Abs format (unit mm)*
G04 Created by KiCad (PCBNEW 9.0.0) date 2025-11-09 18:10:32*
%MOMM*%
%LPD*%
G01*
G04 APERTURE LIST*
%TA.AperFunction,Profile*%
%ADD10C,0.050000*%
%TD*%
G04 APERTURE END LIST*
D10*
X194000000Y-55500000D02*
G75*
G02*
X197500000Y-59000000I0J-3500000D01*
G01*
X159000000Y-68000000D02*
X159000000Y-70000000D01*
X157000000Y-71000000D01*
X155000000Y-70000000D01*
X155000000Y-68000000D01*
X157000000Y-67000000D01*
X159000000Y-68000000D01*
X97500000Y-131000000D02*
X97500000Y-59000000D01*
X169100000Y-72603448D02*
X167600000Y-72603448D01*
X169400000Y-68103448D01*
X170900000Y-68103448D01*
X169100000Y-72603448D01*
X97500000Y-59000000D02*
G75*
G02*
X101000000Y-55500000I3500000J0D01*
G01*
X117500000Y-66000000D02*
G75*
G02*
X118500000Y-66000000I500000J0D01*
G01*
X172150535Y-72603448D02*
X170650535Y-72603448D01*
X172450535Y-68103448D01*
X173950535Y-68103448D01*
X172150535Y-72603448D01*
X163159167Y-72510349D02*
X161659167Y-72510349D01*
X164059167Y-66510349D01*
X165559167Y-66510349D01*
X163159167Y-72510349D01*
X159000000Y-62000000D02*
X159000000Y-64000000D01*
X157000000Y-65000000D01*
X155000000Y-64000000D01*
X155000000Y-62000000D01*
X157000000Y-61000000D01*
X159000000Y-62000000D01*
X194000000Y-134500000D02*
X101000000Y-134500000D01*
X181200000Y-62500000D02*
X179700000Y-62500000D01*
X181500000Y-58000000D01*
X183000000Y-58000000D01*
X181200000Y-62500000D01*
X166100000Y-72603448D02*
X164600000Y-72603448D01*
X167000000Y-66603448D01*
X168500000Y-66603448D01*
X166100000Y-72603448D01*
X101000000Y-55500000D02*
X194000000Y-55500000D01*
X118500000Y-66000000D02*
X118500000Y-108000000D01*
X183600000Y-64000000D02*
X182100000Y-64000000D01*
X184500000Y-58000000D01*
X186000000Y-58000000D01*
X183600000Y-64000000D01*
X117500000Y-108000000D02*
X117500000Y-66000000D01*
X178200000Y-62500000D02*
X176700000Y-62500000D01*
X178500000Y-58000000D01*
X180000000Y-58000000D01*
X178200000Y-62500000D01*
X118500000Y-108000000D02*
G75*
G02*
X117500000Y-108000000I-500000J0D01*
G01*
X197500000Y-131000000D02*
G75*
G02*
X194000000Y-134500000I-3500000J0D01*
G01*
X101000000Y-134500000D02*
G75*
G02*
X97500000Y-131000000I0J3500000D01*
G01*
X197500000Y-59000000D02*
X197500000Y-131000000D01*
M02*
